<svg width="14" height="15" viewBox="0 0 14 15" fill="none" xmlns="http://www.w3.org/2000/svg">
<path d="M3.69391 2.97655L2.81805 2.09888C2.61488 1.89529 2.34461 1.7832 2.057 1.7832C1.7694 1.7832 1.49913 1.89532 1.29599 2.09888L0.661096 2.73515C0.243176 3.15389 0.243176 3.83527 0.661096 4.25404L1.5388 5.13357C1.62464 5.21958 1.73723 5.26259 1.84988 5.26259C1.96217 5.26259 2.07452 5.21979 2.16031 5.13421C2.3321 4.96276 3.52173 3.76924 3.69329 3.59803C3.86506 3.42661 3.86535 3.14838 3.69391 2.97655Z" fill="#105C6E"/>
<path d="M6.80078 0.0878906C6.55809 0.0878906 6.36133 0.284648 6.36133 0.527344V1.93359C6.36133 2.17629 6.55809 2.37305 6.80078 2.37305C7.04348 2.37305 7.24023 2.17629 7.24023 1.93359V0.527344C7.24023 0.284648 7.04348 0.0878906 6.80078 0.0878906Z" fill="#26879C"/>
<path d="M7.88477 0H5.7168C5.4741 0 5.27734 0.196758 5.27734 0.439453C5.27734 0.682149 5.4741 0.878906 5.7168 0.878906H7.88477C8.12746 0.878906 8.32422 0.682149 8.32422 0.439453C8.32422 0.196758 8.12746 0 7.88477 0Z" fill="#DE513C"/>
<path d="M6.80078 0H5.7168C5.4741 0 5.27734 0.196758 5.27734 0.439453C5.27734 0.682149 5.4741 0.878906 5.7168 0.878906H6.80078V0Z" fill="#FC6249"/>
<path d="M11.5657 3.47481C10.293 2.19946 8.60078 1.49707 6.80075 1.49707C5.00072 1.49707 3.30848 2.19946 2.03576 3.47481C0.763282 4.74993 0.0625 6.44525 0.0625 8.24842C0.0625 10.0516 0.763282 11.7469 2.03576 13.022C3.30848 14.2974 5.00072 14.9998 6.80075 14.9998C8.60078 14.9998 10.293 14.2974 11.5657 13.022C12.8382 11.7469 13.539 10.0516 13.539 8.24842C13.539 6.44525 12.8382 4.74993 11.5657 3.47481Z" fill="#DE513C"/>
<path d="M6.80075 1.49707C5.00072 1.49707 3.30848 2.19946 2.03576 3.47481C0.763282 4.74993 0.0625 6.44525 0.0625 8.24842C0.0625 10.0516 0.763282 11.7469 2.03576 13.022C3.30848 14.2974 5.00072 14.9998 6.80075 14.9998V1.49707Z" fill="#FC6249"/>
<path d="M6.80129 3.17969C4.0117 3.17969 1.74219 5.45354 1.74219 8.24849C1.74219 11.0434 4.0117 13.3173 6.80129 13.3173C9.59088 13.3173 11.8604 11.0434 11.8604 8.24849C11.8604 5.45354 9.59088 3.17969 6.80129 3.17969Z" fill="#96D1D9"/>
<path d="M6.80129 3.17969C4.0117 3.17969 1.74219 5.45354 1.74219 8.24849C1.74219 11.0434 4.0117 13.3173 6.80129 13.3173V3.17969Z" fill="#F4F2E6"/>
<path d="M6.79883 4.27738C7.04152 4.27738 7.23828 4.08063 7.23828 3.83793V3.19902C7.09341 3.18648 6.94689 3.17969 6.79883 3.17969C6.65076 3.17969 6.50425 3.18648 6.35938 3.19902V3.83793C6.35938 4.08063 6.55613 4.27738 6.79883 4.27738Z" fill="#105C6E"/>
<path d="M6.79883 12.2197C6.55613 12.2197 6.35938 12.4165 6.35938 12.6592V13.2981C6.50425 13.3106 6.65076 13.3174 6.79883 13.3174C6.94689 13.3174 7.09341 13.3106 7.23828 13.2981V12.6592C7.23828 12.4165 7.04152 12.2197 6.79883 12.2197Z" fill="#105C6E"/>
<path d="M11.8383 7.80908H11.209C10.9663 7.80908 10.7695 8.00584 10.7695 8.24854C10.7695 8.49123 10.9663 8.68799 11.209 8.68799H11.8383C11.8508 8.54312 11.8575 8.3966 11.8575 8.24854C11.8575 8.10047 11.8508 7.95396 11.8383 7.80908Z" fill="#105C6E"/>
<path d="M2.82823 8.24854C2.82823 8.00584 2.63147 7.80908 2.38878 7.80908H1.75945C1.74697 7.95396 1.74023 8.10047 1.74023 8.24854C1.74023 8.3966 1.74697 8.54312 1.75945 8.68799H2.38878C2.63147 8.68799 2.82823 8.49123 2.82823 8.24854Z" fill="#105C6E"/>
<path d="M7.88365 7.99464H7.26367V6.21729C7.26367 5.97459 7.06691 5.77783 6.82422 5.77783C6.58152 5.77783 6.38477 5.97459 6.38477 6.21729V8.43409C6.38477 8.67679 6.58152 8.87355 6.82422 8.87355H7.88365C8.12635 8.87355 8.32311 8.67679 8.32311 8.43409C8.32311 8.1914 8.12635 7.99464 7.88365 7.99464Z" fill="#105C6E"/>
</svg>
