<svg width="12" height="15" viewBox="0 0 12 15" fill="none" xmlns="http://www.w3.org/2000/svg">
<path fill-rule="evenodd" clip-rule="evenodd" d="M5.88817 0C8.84034 0 11.2373 2.40054 11.2373 5.35714C11.2373 6.93964 10.4435 8.80018 9.46832 10.455C8.05402 12.8555 6.28561 14.8227 6.28561 14.8227C6.18452 14.9357 6.03955 15 5.88817 15C5.73679 15 5.59182 14.9357 5.49073 14.8227C5.49073 14.8227 3.72232 12.8555 2.30802 10.455C1.33287 8.80018 0.539062 6.93964 0.539062 5.35714C0.539062 2.40054 2.936 0 5.88817 0ZM5.88817 2.14286C4.11708 2.14286 2.67871 3.58339 2.67871 5.35714C2.67871 7.13089 4.11708 8.57143 5.88817 8.57143C7.65926 8.57143 9.09763 7.13089 9.09763 5.35714C9.09763 3.58339 7.65926 2.14286 5.88817 2.14286Z" fill="#0DADF5"/>
<path d="M5.88964 7.50007C7.07134 7.50007 8.02929 6.54068 8.02929 5.35721C8.02929 4.17375 7.07134 3.21436 5.88964 3.21436C4.70795 3.21436 3.75 4.17375 3.75 5.35721C3.75 6.54068 4.70795 7.50007 5.88964 7.50007Z" fill="#1F397B"/>
</svg>
