<svg width="14" height="13" viewBox="0 0 14 13" fill="none" xmlns="http://www.w3.org/2000/svg">
<path d="M13.4604 12.8166L12.8401 9.68607C12.7476 9.21892 12.4182 8.86424 11.9592 8.73748L9.42278 8.03595L8.85503 7.37407V6.70868C9.1447 6.30654 9.33917 5.84721 9.36317 5.41135L9.57139 5.42807C9.58677 5.42942 9.60187 5.42996 9.61698 5.42996C9.86242 5.42996 10.0615 5.2649 10.1669 4.97037C10.3263 4.52588 10.2513 3.85294 9.91285 3.61775C9.90611 3.61316 9.8991 3.60857 9.89155 3.60372L9.97462 3.06995C9.98568 2.99875 10.007 2.91999 10.0296 2.83611C10.1143 2.52351 10.2198 2.13458 9.94198 1.67499C9.8519 1.52583 9.7308 1.38585 9.61347 1.25073C9.49587 1.11479 9.38475 0.986674 9.32191 0.868808C8.89926 0.0761155 7.95877 0.00976562 7.03203 0.00976562H6.9859C6.05889 0.00976562 5.11867 0.0761156 4.69575 0.869078C4.63291 0.986944 4.52179 1.11533 4.40419 1.25099C4.28686 1.38639 4.16576 1.52637 4.07568 1.67526C3.79787 2.13485 3.90333 2.52378 3.98802 2.83638C4.01068 2.91999 4.03198 2.99902 4.04304 3.07022L4.12611 3.60399C4.1191 3.6083 4.11209 3.61289 4.10589 3.61721C3.76712 3.85132 3.6916 4.52426 3.85047 4.96929C3.95592 5.26463 4.1547 5.43023 4.40068 5.43023C4.41579 5.43023 4.43089 5.42969 4.44627 5.42834L4.66015 5.41108C4.68389 5.84424 4.87619 6.30087 5.1629 6.70113V7.37407L4.59515 8.03595L2.05875 8.73748C1.59996 8.86451 1.27064 9.21919 1.17813 9.68607L0.557783 12.8166C0.548343 12.8641 0.56075 12.9135 0.591497 12.9507C0.622245 12.9879 0.668097 13.0098 0.716645 13.0098H13.3026C13.3512 13.0098 13.397 12.9882 13.4278 12.9507C13.4585 12.9132 13.4699 12.8641 13.4604 12.8166ZM9.87482 9.89456L9.15873 10.2255C9.11504 10.2457 9.0824 10.2846 9.07026 10.3312C9.05813 10.3779 9.06703 10.4275 9.09535 10.4669L9.59594 11.1641L8.56805 12.6864H7.89916L7.89377 12.6343L8.79084 7.7959L9.19271 8.2644L9.87482 9.89456ZM6.45052 12.6214L6.68113 10.404H7.3368L7.56714 12.6214L7.555 12.6864H6.46266L6.45052 12.6214ZM7.00883 9.17172L7.62351 9.72625L7.49647 9.99004C7.46842 10.0483 7.41745 10.0804 7.35272 10.0804H6.66494C6.60021 10.0804 6.54924 10.0483 6.52118 9.99004L6.39415 9.72625L7.00883 9.17172ZM7.78804 10.1306L7.87408 9.95228L8.0351 10.0977L7.77563 11.4969L7.65129 10.3013C7.70793 10.2565 7.75513 10.1988 7.78804 10.1306ZM8.10414 9.7241L7.25023 8.95379L8.44695 7.87412L8.10414 9.7241ZM5.91352 9.7241L5.57044 7.87412L6.76717 8.95379L5.91352 9.7241ZM6.14385 9.95228L6.22989 10.1306C6.2628 10.1988 6.31 10.2565 6.36664 10.301L6.2423 11.4967L5.98283 10.0974L6.14385 9.95228ZM9.86242 4.86167C9.80119 5.03294 9.71245 5.1152 9.59783 5.10603L9.36614 5.08742V4.31091L9.44328 3.94707C9.5633 3.85698 9.65905 3.83594 9.72837 3.88422C9.91312 4.01234 9.98325 4.52399 9.86242 4.86167ZM4.35214 1.84302C4.42793 1.7176 4.53986 1.58814 4.64828 1.46326C4.77235 1.32004 4.90074 1.1717 4.98084 1.02174C5.31987 0.386018 6.12282 0.333424 6.98563 0.333424H7.03176C7.89484 0.333424 8.69752 0.386018 9.03655 1.02147C9.11665 1.17143 9.24504 1.31977 9.36911 1.46299C9.47753 1.58814 9.58946 1.71733 9.66525 1.84275C9.87159 2.18394 9.7931 2.47253 9.71758 2.75169C9.6925 2.8442 9.66876 2.93159 9.65501 3.02033L9.57436 3.53953C9.4654 3.55598 9.33755 3.61046 9.19298 3.73237C9.16547 3.75557 9.14632 3.7874 9.13904 3.82246L9.08051 4.09811C8.99609 4.04767 8.94727 3.94626 8.9346 3.84511L8.86258 3.27143C8.82213 2.94804 8.63629 2.70017 8.3895 2.63949C8.21742 2.59714 8.02997 2.60523 7.83146 2.6136C7.43552 2.63059 6.94275 2.65163 6.29355 2.29129C6.07265 2.16884 5.78675 2.16803 5.44421 2.2894L5.42452 2.29641C5.21819 2.3695 5.08495 2.55776 5.08495 2.77677V3.86507C5.08495 3.96784 5.02642 4.05684 4.94092 4.10107L4.8824 3.82489C4.87484 3.78982 4.85623 3.75827 4.82872 3.73507C4.68254 3.611 4.55334 3.55571 4.44357 3.53899L4.36292 3.01952C4.34917 2.93078 4.32543 2.84339 4.30035 2.75088C4.22429 2.4728 4.14607 2.18421 4.35214 1.84302ZM4.41983 5.10576C4.30521 5.1152 4.2162 5.03267 4.15497 4.86059C4.03441 4.52264 4.10481 4.01126 4.28956 3.88368C4.35942 3.83541 4.45625 3.85725 4.57762 3.94923L4.65718 4.32359V5.08688L4.41983 5.10576ZM4.98057 4.43282C5.22736 4.36243 5.40834 4.13479 5.40834 3.86561V2.77731C5.40834 2.6964 5.45581 2.62924 5.53241 2.602L5.5521 2.59499C5.80347 2.50598 6.0001 2.49924 6.1363 2.57476C6.86534 2.97906 7.43147 2.95479 7.84495 2.93725C8.02727 2.92943 8.18452 2.92269 8.31182 2.95398C8.42537 2.98203 8.51762 3.12578 8.54081 3.31189L8.61283 3.88557C8.64735 4.15987 8.81538 4.36647 9.04221 4.43255V5.321C9.04221 5.78599 8.78598 6.34106 8.35714 6.80551C7.93233 7.26537 7.42932 7.53994 7.01126 7.53994C6.5932 7.53994 6.09045 7.26537 5.66538 6.80551C5.23626 6.34106 4.9803 5.78625 4.9803 5.321V4.43282H4.98057ZM7.01153 7.86387C7.52668 7.86387 8.08688 7.54938 8.53164 7.09383V7.3622L7.00883 8.73586L5.48602 7.3622V7.08844C5.93159 7.54669 6.49448 7.86387 7.01153 7.86387ZM5.22682 7.79617L6.12389 12.6346L6.1185 12.6866H5.44961L4.42199 11.1641L4.92258 10.4669C4.95063 10.4278 4.9598 10.3779 4.94767 10.3312C4.93553 10.2846 4.90289 10.2457 4.8592 10.2255L4.14311 9.89456L4.82495 8.26494L5.22682 7.79617ZM1.49504 9.74918C1.56436 9.39963 1.80117 9.14448 2.14452 9.04954L4.40743 8.42353L3.78412 9.91344C3.7504 9.99381 3.78654 10.0863 3.86557 10.1227L4.54552 10.437L4.09348 11.0667C4.0541 11.1218 4.05302 11.1957 4.09078 11.2518L5.05906 12.6864H0.912998L1.49504 9.74918ZM8.9586 12.6864L9.92715 11.2518C9.96518 11.1957 9.9641 11.1218 9.92445 11.0667L9.47241 10.437L10.1524 10.1227C10.2314 10.0863 10.2673 9.99381 10.2338 9.91344L9.6105 8.42353L11.8734 9.04954C12.217 9.14448 12.4536 9.39963 12.5229 9.74918L13.1047 12.6864H8.9586Z" fill="white"/>
</svg>
