<svg width="14" height="13" viewBox="0 0 14 13" fill="none" xmlns="http://www.w3.org/2000/svg">
<path d="M2.51859 5.83752H3.191C3.43755 5.83752 3.63928 5.6358 3.63928 5.38924V4.71683C3.63928 4.47028 3.43755 4.26855 3.191 4.26855H2.51859C2.27204 4.26855 2.07031 4.47028 2.07031 4.71683V5.38924C2.07031 5.6358 2.27204 5.83752 2.51859 5.83752ZM2.51859 4.71683H3.191V5.38924H2.51859V4.71683Z" fill="white"/>
<path d="M4.98343 5.83752H5.65585C5.9024 5.83752 6.10412 5.6358 6.10412 5.38924V4.71683C6.10412 4.47028 5.9024 4.26855 5.65585 4.26855H4.98343C4.73688 4.26855 4.53516 4.47028 4.53516 4.71683V5.38924C4.53516 5.6358 4.73688 5.83752 4.98343 5.83752ZM4.98343 4.71683H5.65585V5.38924H4.98343V4.71683Z" fill="white"/>
<path d="M7.45218 5.83752H8.1246C8.37115 5.83752 8.57287 5.6358 8.57287 5.38924V4.71683C8.57287 4.47028 8.37115 4.26855 8.1246 4.26855H7.45218C7.20563 4.26855 7.00391 4.47028 7.00391 4.71683V5.38924C7.00391 5.6358 7.20563 5.83752 7.45218 5.83752ZM7.45218 4.71683H8.1246V5.38924H7.45218V4.71683Z" fill="white"/>
<path d="M9.91703 5.83752H10.5894C10.836 5.83752 11.0377 5.6358 11.0377 5.38924V4.71683C11.0377 4.47028 10.836 4.26855 10.5894 4.26855H9.91703C9.67047 4.26855 9.46875 4.47028 9.46875 4.71683V5.38924C9.46875 5.6358 9.67047 5.83752 9.91703 5.83752ZM9.91703 4.71683H10.5894V5.38924H9.91703V4.71683Z" fill="white"/>
<path d="M2.51859 8.07873H3.191C3.43755 8.07873 3.63928 7.87701 3.63928 7.63046V6.95804C3.63928 6.71149 3.43755 6.50977 3.191 6.50977H2.51859C2.27204 6.50977 2.07031 6.71149 2.07031 6.95804V7.63046C2.07031 7.87701 2.27204 8.07873 2.51859 8.07873ZM2.51859 6.95804H3.191V7.63046H2.51859V6.95804Z" fill="white"/>
<path d="M4.98343 8.07873H5.65585C5.9024 8.07873 6.10412 7.87701 6.10412 7.63046V6.95804C6.10412 6.71149 5.9024 6.50977 5.65585 6.50977H4.98343C4.73688 6.50977 4.53516 6.71149 4.53516 6.95804V7.63046C4.53516 7.87701 4.73688 8.07873 4.98343 8.07873ZM4.98343 6.95804H5.65585V7.63046H4.98343V6.95804Z" fill="white"/>
<path d="M2.51859 10.3199H3.191C3.43755 10.3199 3.63928 10.1182 3.63928 9.87167V9.19925C3.63928 8.9527 3.43755 8.75098 3.191 8.75098H2.51859C2.27204 8.75098 2.07031 8.9527 2.07031 9.19925V9.87167C2.07031 10.1182 2.27204 10.3199 2.51859 10.3199ZM2.51859 9.19925H3.191V9.87167H2.51859V9.19925Z" fill="white"/>
<path d="M12.3817 7.67977V2.02701C12.3817 1.40839 11.8797 0.906317 11.261 0.906317V0.682179C11.261 0.312352 10.9585 0.00976562 10.5886 0.00976562C10.2188 0.00976562 9.91622 0.312352 9.91622 0.682179V0.906317H8.57139V0.682179C8.57139 0.312352 8.2688 0.00976562 7.89898 0.00976562C7.52915 0.00976562 7.22656 0.312352 7.22656 0.682179V0.906317H5.88173V0.682179C5.88173 0.312352 5.57915 0.00976562 5.20932 0.00976562C4.83949 0.00976562 4.53691 0.312352 4.53691 0.682179V0.906317H3.19208V0.682179C3.19208 0.312352 2.88949 0.00976562 2.51967 0.00976562C2.14984 0.00976562 1.84725 0.312352 1.84725 0.682179V0.906317C1.22863 0.906317 0.726562 1.40839 0.726562 2.02701V11.4408C0.726562 12.0594 1.22863 12.5615 1.84725 12.5615H8.53329C9.00398 12.8439 9.55311 13.0098 10.1404 13.0098C11.8707 13.0098 13.2783 11.6022 13.2783 9.87183C13.2783 9.02011 12.9354 8.24683 12.3817 7.67977ZM1.17484 3.37183H11.9335V7.30097C11.4247 6.94459 10.806 6.7339 10.1404 6.7339C8.41001 6.7339 7.00242 8.14149 7.00242 9.87183C7.00242 10.3537 7.11449 10.8087 7.30949 11.2167H1.84725C1.47742 11.2167 1.17484 10.9141 1.17484 10.5442V3.37183ZM10.3645 0.682179C10.3645 0.558904 10.4654 0.458041 10.5886 0.458041C10.7119 0.458041 10.8128 0.558904 10.8128 0.682179V0.906317H10.3645V0.682179ZM7.67484 0.682179C7.67484 0.558904 7.7757 0.458041 7.89898 0.458041C8.02225 0.458041 8.12311 0.558904 8.12311 0.682179V0.906317H7.67484V0.682179ZM4.98518 0.682179C4.98518 0.558904 5.08605 0.458041 5.20932 0.458041C5.3326 0.458041 5.43346 0.558904 5.43346 0.682179V0.906317H4.98518V0.682179ZM2.29553 0.682179C2.29553 0.558904 2.39639 0.458041 2.51967 0.458041C2.64294 0.458041 2.7438 0.558904 2.7438 0.682179V0.906317H2.29553V0.682179ZM1.17484 2.02701C1.17484 1.65718 1.47742 1.35459 1.84725 1.35459V1.57873C1.84725 1.94856 2.14984 2.25114 2.51967 2.25114C2.64294 2.25114 2.7438 2.15028 2.7438 2.02701C2.7438 1.90373 2.64294 1.80287 2.51967 1.80287C2.39639 1.80287 2.29553 1.70201 2.29553 1.57873V1.35459H4.53691V1.57873C4.53691 1.94856 4.83949 2.25114 5.20932 2.25114C5.3326 2.25114 5.43346 2.15028 5.43346 2.02701C5.43346 1.90373 5.3326 1.80287 5.20932 1.80287C5.08605 1.80287 4.98518 1.70201 4.98518 1.57873V1.35459H7.22656V1.57873C7.22656 1.94856 7.52915 2.25114 7.89898 2.25114C8.02225 2.25114 8.12311 2.15028 8.12311 2.02701C8.12311 1.90373 8.02225 1.80287 7.89898 1.80287C7.7757 1.80287 7.67484 1.70201 7.67484 1.57873V1.35459H9.91622V1.57873C9.91622 1.94856 10.2188 2.25114 10.5886 2.25114C10.7119 2.25114 10.8128 2.15028 10.8128 2.02701C10.8128 1.90373 10.7119 1.80287 10.5886 1.80287C10.4654 1.80287 10.3645 1.70201 10.3645 1.57873V1.35459H11.261C11.6309 1.35459 11.9335 1.65718 11.9335 2.02701V2.92356H1.17484V2.02701ZM1.84725 12.1132C1.47742 12.1132 1.17484 11.8106 1.17484 11.4408V11.4341C1.36311 11.5753 1.59398 11.6649 1.84725 11.6649H7.56949C7.68156 11.8263 7.80932 11.9765 7.94829 12.1132H1.84725ZM10.1404 12.5615C8.65656 12.5615 7.4507 11.3556 7.4507 9.87183C7.4507 8.38804 8.65656 7.18218 10.1404 7.18218C11.6241 7.18218 12.83 8.38804 12.83 9.87183C12.83 11.3556 11.6241 12.5615 10.1404 12.5615Z" fill="white"/>
<path d="M10.1421 10.5441C10.2654 10.5441 10.3662 10.4433 10.3662 10.32V8.07863C10.3662 7.95535 10.2654 7.85449 10.1421 7.85449C10.0188 7.85449 9.91797 7.95535 9.91797 8.07863V10.32C9.91797 10.4433 10.0188 10.5441 10.1421 10.5441Z" fill="white"/>
<path d="M10.1409 11.6651C10.3266 11.6651 10.4771 11.5146 10.4771 11.3289C10.4771 11.1432 10.3266 10.9927 10.1409 10.9927C9.95521 10.9927 9.80469 11.1432 9.80469 11.3289C9.80469 11.5146 9.95521 11.6651 10.1409 11.6651Z" fill="white"/>
<path d="M4.49077 10.3672C4.53559 10.4121 4.59163 10.4322 4.6499 10.4322C4.70818 10.4322 4.76421 10.4098 4.80904 10.3672L5.32232 9.85397L5.83559 10.3672C5.88042 10.4121 5.93645 10.4322 5.99473 10.4322C6.05301 10.4322 6.10904 10.4098 6.15387 10.3672C6.24128 10.2798 6.24128 10.1386 6.15387 10.0512L5.64059 9.53794L6.15387 9.02466C6.24128 8.93725 6.24128 8.79604 6.15387 8.70863C6.06645 8.62121 5.92525 8.62121 5.83783 8.70863L5.32456 9.2219L4.81128 8.70863C4.72387 8.62121 4.58266 8.62121 4.49525 8.70863C4.40783 8.79604 4.40783 8.93725 4.49525 9.02466L5.00852 9.53794L4.49525 10.0512C4.40783 10.1386 4.40783 10.2798 4.49525 10.3672H4.49077Z" fill="white"/>
</svg>
