<svg width="14" height="13" viewBox="0 0 14 13" fill="none" xmlns="http://www.w3.org/2000/svg">
<path d="M13.5018 6.24145C13.5018 5.87953 13.3604 5.53841 13.1066 5.28465C12.8508 5.02881 12.5117 4.88945 12.1498 4.88945C11.7879 4.88945 11.4468 5.03089 11.1909 5.28673L11.0682 5.41153V2.99041C11.0682 2.98417 11.0641 2.97793 11.0641 2.97169C11.062 2.94881 11.0578 2.92593 11.0495 2.90305C11.0453 2.89265 11.0433 2.88433 11.0391 2.87601C11.0266 2.85105 11.0121 2.82609 10.9913 2.80321C10.9892 2.80113 10.9892 2.79905 10.9871 2.79697L8.27687 0.0908856C8.27479 0.0888056 8.27063 0.0867256 8.26647 0.0825656C8.24567 0.0638456 8.22487 0.0492856 8.20199 0.0388856C8.19159 0.0326456 8.17911 0.0305656 8.16663 0.0264056C8.14791 0.0201656 8.12919 0.0160056 8.11047 0.0160056C8.10215 0.0160056 8.09383 0.00976562 8.08551 0.00976562H1.85799C1.11127 0.00976562 0.503906 0.617126 0.503906 1.36385V11.6557C0.503906 12.4024 1.11127 13.0098 1.85799 13.0098H9.71207C10.4588 13.0098 11.0661 12.4024 11.0661 11.6557V9.23665L12.7218 7.58097L12.7239 7.57889L13.1066 7.20033C13.3625 6.94241 13.5018 6.60337 13.5018 6.24145ZM10.6065 8.93089C10.6044 8.93297 10.6023 8.93505 10.6002 8.93713L8.70119 10.8362L8.12919 10.2642C8.12295 10.2579 8.11463 10.2496 8.10631 10.2434L7.55303 9.69009L10.9996 6.24353L12.1457 7.39169L10.6065 8.93089ZM7.30967 10.2101L7.74439 10.6448C7.75271 10.6531 7.76103 10.6594 7.76935 10.6656L8.18119 11.0795L6.98311 11.4082L7.30967 10.2101ZM8.35799 0.935366L10.1426 2.72001H9.17127C8.72407 2.72001 8.35799 2.35601 8.35799 1.90673V0.935366ZM10.5253 11.6557C10.5253 12.1029 10.1613 12.469 9.71207 12.469H1.85799C1.41079 12.469 1.04471 12.105 1.04471 11.6557V1.36385C1.04471 0.916646 1.40871 0.550566 1.85799 0.550566H7.81511V1.90673C7.81511 2.65345 8.42247 3.26081 9.16919 3.26081H10.5253V5.95233L6.98519 9.49249C6.95815 9.51745 6.93943 9.54657 6.92487 9.58193C6.92279 9.58609 6.92071 9.59025 6.91863 9.59441C6.91655 9.60273 6.91031 9.60897 6.90823 9.61937L6.33207 11.7264C6.30711 11.82 6.33415 11.9198 6.40279 11.9885C6.45479 12.0405 6.52343 12.0675 6.59415 12.0675C6.61703 12.0675 6.64199 12.0634 6.66487 12.0571L8.77191 11.481C8.77815 11.4789 8.78439 11.4747 8.79063 11.4726C8.79895 11.4685 8.80727 11.4664 8.81767 11.4622C8.84263 11.4498 8.86551 11.4352 8.88631 11.4165C8.88839 11.4144 8.89255 11.4123 8.89463 11.4102L10.5253 9.77953V11.6557ZM12.7239 6.81553L12.5305 7.00689L11.3823 5.85873L11.5737 5.66737C11.8794 5.36161 12.4161 5.36161 12.7239 5.66737C12.8778 5.82129 12.961 6.02513 12.961 6.24145C12.961 6.45777 12.8778 6.66161 12.7239 6.81553Z" fill="white"/>
<path d="M3.48082 1.63428H1.85634C1.70658 1.63428 1.58594 1.75492 1.58594 1.90468V3.52916C1.58594 3.67892 1.70658 3.79956 1.85634 3.79956H3.48082C3.63058 3.79956 3.75122 3.67892 3.75122 3.52916V1.90468C3.7533 1.75492 3.63058 1.63428 3.48082 1.63428ZM3.21042 3.25876H2.12882V2.17508H3.2125V3.25876H3.21042Z" fill="white"/>
<path d="M4.56728 2.44754H7.00503C7.15479 2.44754 7.27543 2.3269 7.27543 2.17714C7.27543 2.02738 7.15479 1.90674 7.00503 1.90674H4.56728C4.41752 1.90674 4.29688 2.02738 4.29688 2.17714C4.29688 2.3269 4.41752 2.44754 4.56728 2.44754Z" fill="white"/>
<path d="M4.56728 3.52908H6.19176C6.34152 3.52908 6.46215 3.40844 6.46215 3.25868C6.46215 3.10892 6.34152 2.98828 6.19176 2.98828H4.56728C4.41752 2.98828 4.29688 3.10892 4.29688 3.25868C4.29688 3.40844 4.41752 3.52908 4.56728 3.52908Z" fill="white"/>
<path d="M3.48082 4.61719H1.85634C1.70658 4.61719 1.58594 4.73783 1.58594 4.88759V6.51207C1.58594 6.66183 1.70658 6.78247 1.85634 6.78247H3.48082C3.63058 6.78247 3.75122 6.66183 3.75122 6.51207V4.88759C3.7533 4.73783 3.63058 4.61719 3.48082 4.61719ZM3.21042 6.24167H2.12882V5.15799H3.2125V6.24167H3.21042Z" fill="white"/>
<path d="M4.56728 5.42801H7.00503C7.15479 5.42801 7.27543 5.30737 7.27543 5.15761C7.27543 5.00785 7.15479 4.88721 7.00503 4.88721H4.56728C4.41752 4.88721 4.29688 5.00785 4.29688 5.15761C4.29688 5.30737 4.41752 5.42801 4.56728 5.42801Z" fill="white"/>
<path d="M4.56728 6.50955H6.19176C6.34152 6.50955 6.46215 6.38891 6.46215 6.23915C6.46215 6.08939 6.34152 5.96875 6.19176 5.96875H4.56728C4.41752 5.96875 4.29688 6.08939 4.29688 6.23915C4.29688 6.38891 4.41752 6.50955 4.56728 6.50955Z" fill="white"/>
<path d="M3.48082 7.59766H1.85634C1.70658 7.59766 1.58594 7.7183 1.58594 7.86806V9.49254C1.58594 9.6423 1.70658 9.76294 1.85634 9.76294H3.48082C3.63058 9.76294 3.75122 9.6423 3.75122 9.49254V7.86806C3.7533 7.72038 3.63058 7.59766 3.48082 7.59766ZM3.21042 9.22214H2.12882V8.13846H3.2125V9.22214H3.21042Z" fill="white"/>
<path d="M4.56728 8.41092H7.00503C7.15479 8.41092 7.27543 8.29028 7.27543 8.14052C7.27543 7.99076 7.15479 7.87012 7.00503 7.87012H4.56728C4.41752 7.87012 4.29688 7.99076 4.29688 8.14052C4.29688 8.29028 4.41752 8.41092 4.56728 8.41092Z" fill="white"/>
<path d="M6.46215 9.22206C6.46215 9.0723 6.34152 8.95166 6.19176 8.95166H4.56728C4.41752 8.95166 4.29688 9.0723 4.29688 9.22206C4.29688 9.37182 4.41752 9.49246 4.56728 9.49246H6.19176C6.34152 9.49246 6.46215 9.37182 6.46215 9.22206Z" fill="white"/>
</svg>
