<svg width="10" height="13" viewBox="0 0 10 13" fill="none" xmlns="http://www.w3.org/2000/svg">
<path d="M7.84224 1.12379H8.88482C9.21856 1.12379 9.49009 0.85226 9.49009 0.518523C9.49009 0.247549 9.26961 0.0270652 8.99863 0.0270652H8.17938C8.05073 0.0270652 7.93123 0.0850004 7.85149 0.186031L7.54972 0.56853C7.46762 0.672534 7.45255 0.811222 7.51033 0.930472C7.50998 0.929761 7.50972 0.929024 7.50937 0.928312L7.1983 1.3226L6.42037 1.1752C6.2783 0.52208 5.69597 0.0313341 5.0009 0.0313341C4.30584 0.0313341 3.72351 0.52208 3.58144 1.17522L2.80351 1.32263L2.47359 0.904478C2.47381 0.90402 2.47407 0.903563 2.4743 0.903106C2.53005 0.78472 2.51429 0.647352 2.43323 0.544645L2.12892 0.158944C2.04697 0.0550926 1.91924 -0.00396058 1.7868 0.000206683L0.999517 0.0270906C0.730221 0.0290726 0.511719 0.248769 0.511719 0.518523C0.511719 0.85226 0.783252 1.12379 1.11699 1.12379C1.11844 1.12379 1.11989 1.12377 1.12133 1.12374L2.14117 1.10049L2.38554 1.41022C2.38572 1.41017 2.3859 1.41011 2.38607 1.41004C2.22439 1.47006 2.09995 1.60021 2.0452 1.7607L1.26175 1.76067C1.15615 1.76067 1.07056 1.84625 1.07056 1.95186C1.07056 2.05746 1.15617 2.14304 1.26175 2.14304H2.0502C2.13106 2.35964 2.33998 2.51431 2.58442 2.51431H3.75319C2.79721 2.70992 2.07584 3.55753 2.07584 4.57048V5.24067V6.40059V7.23041C2.07584 7.33602 2.16145 7.4216 2.26703 7.4216C2.37263 7.4216 2.45821 7.33602 2.45821 7.23041V6.59178H3.06928C3.28798 6.59178 3.46593 6.41383 3.46593 6.19513V5.44614C3.46593 5.22743 3.28798 5.04948 3.06928 5.04948H2.45821V4.57053C2.45821 3.6951 3.1172 2.97116 3.96509 2.86746L4.18615 5.20296C4.21014 5.4564 4.42018 5.64749 4.67474 5.64749H5.32692C5.58148 5.64749 5.79152 5.4564 5.8155 5.20296L6.03657 2.86746C6.88446 2.97116 7.54344 3.6951 7.54344 4.57053V5.04953H6.93238C6.71368 5.04953 6.53573 5.22748 6.53573 5.44619V6.19518C6.53573 6.41388 6.71368 6.59183 6.93238 6.59183H7.54344V8.53522C7.54344 8.87582 7.31363 9.17508 6.9846 9.26302L6.65976 9.34982L6.85168 8.71467C6.93945 8.42426 6.94061 8.12142 6.85506 7.83886C6.7371 7.44929 6.49223 7.09922 6.16558 6.8531C5.82773 6.59849 5.42495 6.46394 5.00083 6.46394C4.57671 6.46394 4.17396 6.59849 3.83608 6.8531C3.50943 7.09924 3.26455 7.44932 3.1466 7.83886C3.06104 8.12142 3.06221 8.42426 3.14998 8.71469L3.3419 9.34982L3.01706 9.26302C2.688 9.1751 2.45819 8.87582 2.45819 8.53522V8.12139C2.45819 8.01579 2.37258 7.93021 2.267 7.93021C2.1614 7.93021 2.07581 8.01579 2.07581 8.12139V8.53522C2.07581 9.04869 2.42226 9.49987 2.91834 9.63246L3.42845 9.76876V11.1898C3.42845 11.4177 3.61389 11.6032 3.84185 11.6032H4.05748V12.0666C4.05755 12.5868 4.48073 13.01 5.0009 13.01C5.52108 13.01 5.94426 12.5868 5.94426 12.0666V11.6032H6.15989C6.38784 11.6032 6.57328 11.4177 6.57328 11.1898V9.76876L7.08339 9.63246C7.57945 9.49987 7.92592 9.04869 7.92592 8.53522V6.40064V5.24072V4.57053C7.92592 3.55758 7.20455 2.70997 6.24857 2.51436H7.41733C7.66178 2.51436 7.8707 2.35969 7.95156 2.1431H8.74001C8.84561 2.1431 8.93119 2.05751 8.93119 1.95191C8.93119 1.84631 8.84559 1.76072 8.74001 1.76072H7.95659C7.90185 1.60033 7.77755 1.47026 7.61601 1.41019C7.61609 1.41022 7.61617 1.41024 7.61624 1.41027L7.84224 1.12379ZM8.15171 0.422905C8.15845 0.414367 8.16853 0.409463 8.17938 0.409463H8.99863C9.05878 0.409463 9.10769 0.458377 9.10769 0.518523C9.10769 0.641432 9.0077 0.741421 8.8848 0.741421H7.90038L8.15171 0.422905ZM1.11516 0.741421C0.993089 0.74043 0.894116 0.640822 0.894116 0.518523C0.894116 0.458377 0.943056 0.409463 1.00318 0.409463C1.00536 0.409463 1.00752 0.409437 1.00971 0.409361L1.79981 0.382401C1.80022 0.382375 1.8006 0.382375 1.801 0.382375C1.81178 0.382375 1.82207 0.38733 1.82875 0.395792L2.08402 0.719339L1.11516 0.741421ZM2.58448 2.13197C2.48101 2.13197 2.39682 2.04778 2.39682 1.94431C2.39682 1.85423 2.46106 1.77668 2.54954 1.75994L3.55082 1.57022C3.56261 1.77109 3.61547 1.96103 3.701 2.13197H2.58448ZM2.45826 5.43188H3.06933C3.0772 5.43188 3.08358 5.43831 3.08358 5.44616V6.19515C3.08358 6.20303 3.07718 6.20941 3.06933 6.20941H2.45826V5.43188ZM4.05755 11.2208H3.84192C3.82482 11.2208 3.81092 11.2069 3.81092 11.1898V10.9317C3.81092 10.9146 3.82482 10.9007 3.84192 10.9007H4.05755V11.2208ZM4.05758 10.5183H4.05755H3.84192C3.83145 10.5183 3.82119 10.5191 3.81092 10.5199V10.0258C3.88733 10.0735 3.96989 10.1118 4.05758 10.1382V10.5183ZM5.56188 12.0666C5.56186 12.3759 5.3102 12.6276 5.0009 12.6276C4.69161 12.6276 4.43995 12.3759 4.43995 12.0666V10.1822H5.56188V12.0666ZM6.19091 11.1898C6.19091 11.2069 6.17701 11.2208 6.15991 11.2208H5.94428V10.9007H6.15991C6.17701 10.9007 6.19091 10.9146 6.19091 10.9317V11.1898ZM6.19094 10.5199C6.18065 10.5191 6.17038 10.5183 6.15991 10.5183H5.94428V10.1382C6.03195 10.1118 6.11453 10.0735 6.19094 10.0258V10.5199ZM6.48572 8.60408L6.26323 9.34042C6.25335 9.37315 6.24102 9.40453 6.22659 9.43449C6.21683 9.44813 6.2089 9.46307 6.20298 9.47906C6.1946 9.49352 6.18568 9.50759 6.1763 9.52126C6.17361 9.52485 6.17109 9.52853 6.16868 9.53229C6.06744 9.67329 5.91275 9.76805 5.73696 9.79292C5.7332 9.79323 5.72952 9.79374 5.72581 9.79427C5.69907 9.79757 5.67204 9.79978 5.64449 9.79978H4.35734C4.3298 9.79978 4.30276 9.79757 4.27603 9.79427C4.27234 9.79374 4.26863 9.79323 4.26487 9.79292C4.08906 9.76805 3.93434 9.67327 3.8331 9.53222C3.83069 9.52851 3.82823 9.52485 3.82556 9.52131C3.81616 9.50762 3.80724 9.49349 3.79883 9.47898C3.79291 9.46302 3.785 9.44811 3.77527 9.43449C3.76084 9.4045 3.74851 9.3731 3.7386 9.34037L3.51611 8.60406C3.45025 8.38606 3.44906 8.15979 3.51268 7.94967C3.70941 7.30001 4.32141 6.84629 5.00093 6.84629C5.68045 6.84629 6.29245 7.30001 6.48918 7.94967C6.55278 8.15981 6.55158 8.38609 6.48572 8.60408ZM7.54355 6.20943H6.93248C6.9246 6.20943 6.91823 6.20303 6.91823 6.19518V5.44619C6.91823 5.43831 6.92463 5.43193 6.93248 5.43193H7.54355V6.20943ZM5.43488 5.1669C5.4296 5.22286 5.3832 5.26509 5.32699 5.26509H5.19209H4.80969H4.67479C4.61858 5.26509 4.57218 5.22286 4.5669 5.1669L4.34799 2.85422H4.51715C4.52701 2.85771 4.53697 2.86075 4.54688 2.86403C4.55587 2.86701 4.56479 2.87016 4.57386 2.87293C4.59429 2.87923 4.6148 2.8851 4.63543 2.89046C4.64293 2.89242 4.65052 2.89402 4.65807 2.89585C4.67243 2.89933 4.68678 2.90278 4.70122 2.90583C4.71001 2.90769 4.7189 2.90926 4.72775 2.91096C4.74129 2.91356 4.75483 2.91605 4.76845 2.91826C4.7774 2.91971 4.78639 2.921 4.79539 2.92227C4.80016 2.92296 4.80492 2.92377 4.80969 2.92441V3.69548C4.80969 3.80108 4.8953 3.88666 5.00088 3.88666C5.10648 3.88666 5.19207 3.80108 5.19207 3.69548V2.92441C5.19684 2.92377 5.20159 2.92296 5.20637 2.92227C5.21537 2.921 5.22436 2.91971 5.23331 2.91826C5.24693 2.91607 5.26047 2.91356 5.27401 2.91096C5.28286 2.90926 5.29175 2.90769 5.30054 2.90583C5.31497 2.90278 5.32933 2.89933 5.34369 2.89585C5.35121 2.89402 5.35883 2.89242 5.36633 2.89046C5.38696 2.8851 5.40749 2.87923 5.4279 2.87293C5.43697 2.87013 5.44589 2.86701 5.45488 2.86403C5.46479 2.86075 5.47475 2.85771 5.48461 2.85422H5.65377L5.43488 5.1669ZM5.37553 2.48687C5.3679 2.48972 5.36023 2.49238 5.35256 2.49505C5.3445 2.49787 5.33642 2.50067 5.32826 2.50328C5.32013 2.5059 5.31195 2.50834 5.30377 2.51076C5.29571 2.51314 5.28763 2.51546 5.2795 2.51767C5.2714 2.51985 5.26326 2.52191 5.25513 2.52392C5.2466 2.526 5.23803 2.52798 5.22942 2.52986C5.22157 2.53159 5.21371 2.53324 5.20584 2.53477C5.19666 2.53657 5.18742 2.53817 5.17814 2.53972C5.17067 2.54097 5.16322 2.54224 5.15573 2.54333C5.14572 2.54478 5.13563 2.546 5.12554 2.54719C5.11863 2.54801 5.11174 2.5489 5.10481 2.54956C5.09345 2.55065 5.08199 2.55144 5.0705 2.55217C5.06471 2.55255 5.05894 2.55309 5.05312 2.55337C5.03582 2.55421 5.01844 2.55469 5.00093 2.55469C4.98342 2.55469 4.96604 2.55421 4.94874 2.55337C4.94292 2.55309 4.93715 2.55255 4.93136 2.55217C4.9199 2.55144 4.90844 2.55065 4.89705 2.54956C4.89012 2.5489 4.88323 2.54801 4.87632 2.54719C4.86623 2.54602 4.85614 2.5448 4.84613 2.54333C4.83864 2.54224 4.83119 2.54099 4.82372 2.53972C4.81444 2.53817 4.80522 2.53655 4.79602 2.53477C4.78815 2.53322 4.78029 2.53159 4.77244 2.52986C4.76383 2.52798 4.75526 2.526 4.74673 2.52392C4.73857 2.52191 4.73044 2.51985 4.72236 2.51767C4.71423 2.51548 4.70615 2.51314 4.69809 2.51076C4.68991 2.50834 4.68173 2.50588 4.6736 2.50328C4.66544 2.50067 4.65738 2.49785 4.6493 2.49505C4.64163 2.49238 4.63396 2.48972 4.62633 2.48687C4.22033 2.33466 3.9305 1.94271 3.9305 1.48421C3.9305 1.44261 3.93314 1.40165 3.93777 1.3613C3.93784 1.36069 3.93795 1.36008 3.938 1.35945C4.00002 0.82779 4.45293 0.413706 5.00096 0.413706C5.54898 0.413706 6.00189 0.827764 6.06391 1.35945C6.06399 1.36006 6.06406 1.36067 6.06414 1.3613C6.06879 1.40165 6.07141 1.44264 6.07141 1.48421C6.07138 1.94271 5.78156 2.33466 5.37553 2.48687ZM7.41733 2.13197H6.30081C6.38634 1.96103 6.43919 1.77112 6.45099 1.57022L7.45227 1.75994C7.54078 1.77668 7.60501 1.85423 7.60501 1.94431C7.60501 2.04776 7.52083 2.13197 7.41733 2.13197Z" fill="white"/>
<path d="M5.0023 0.67334C4.55518 0.67334 4.19141 1.03711 4.19141 1.48425C4.19141 1.93137 4.55518 2.29514 5.0023 2.29514C5.44941 2.29514 5.81318 1.93137 5.81318 1.48425C5.81318 1.03711 5.44941 0.67334 5.0023 0.67334ZM5.0023 1.91275C4.76601 1.91275 4.57378 1.72052 4.57378 1.48425C4.57378 1.24799 4.76601 1.05574 5.0023 1.05574C5.23858 1.05574 5.43081 1.24797 5.43081 1.48425C5.43081 1.72054 5.23858 1.91275 5.0023 1.91275Z" fill="white"/>
</svg>
