<svg width="13" height="13" viewBox="0 0 13 13" fill="none" xmlns="http://www.w3.org/2000/svg">
<path d="M11.6556 0H1.3453C1.04807 0 0.763022 0.118072 0.552852 0.328242C0.342682 0.538413 0.224609 0.823464 0.224609 1.12069V2.91379C0.224609 3.21102 0.342682 3.49607 0.552852 3.70624C0.763022 3.91641 1.04807 4.03448 1.3453 4.03448V5.82759C1.3453 6.12481 1.46337 6.40986 1.67354 6.62003C1.88371 6.8302 2.16876 6.94828 2.46599 6.94828H2.91426V8.96552C2.91325 9.26695 2.98881 9.5637 3.13386 9.82794C3.27892 10.0922 3.48872 10.3152 3.74358 10.4762C3.26168 10.8169 3.36254 11.2853 3.36254 12.1034C3.36254 12.3412 3.457 12.5693 3.62513 12.7374C3.79327 12.9055 4.02131 13 4.25909 13H8.51771C8.75549 13 8.98353 12.9055 9.15167 12.7374C9.31981 12.5693 9.41426 12.3412 9.41426 12.1034C9.41426 11.3167 9.51513 10.8169 9.03323 10.4762C9.28722 10.3143 9.49633 10.0911 9.64127 9.82702C9.78621 9.563 9.86231 9.26671 9.86254 8.96552V6.94828H10.535C10.8322 6.94828 11.1172 6.8302 11.3274 6.62003C11.5376 6.40986 11.6556 6.12481 11.6556 5.82759V4.03448C11.9529 4.03448 12.2379 3.91641 12.4481 3.70624C12.6583 3.49607 12.7763 3.21102 12.7763 2.91379V1.12069C12.7763 0.823464 12.6583 0.538413 12.4481 0.328242C12.2379 0.118072 11.9529 0 11.6556 0ZM1.79357 5.82759V2.24138H2.96582C2.9029 2.31172 2.82588 2.36804 2.73976 2.40665C2.65365 2.44527 2.56037 2.46533 2.46599 2.46552C2.40654 2.46552 2.34953 2.48913 2.3075 2.53117C2.26547 2.5732 2.24185 2.63021 2.24185 2.68966V4.93103C2.24185 4.99048 2.26547 5.04749 2.3075 5.08952C2.34953 5.13156 2.40654 5.15517 2.46599 5.15517C2.64432 5.15517 2.81536 5.22602 2.94146 5.35212C3.06756 5.47822 3.1384 5.64925 3.1384 5.82759C3.1384 5.88703 3.16202 5.94404 3.20405 5.98608C3.24608 6.02811 3.3031 6.05172 3.36254 6.05172H7.62116V6.5H2.46599C2.28765 6.5 2.11662 6.42916 1.99052 6.30305C1.86442 6.17695 1.79357 6.00592 1.79357 5.82759ZM7.39702 3.47414C7.39702 4.14655 6.99582 4.7069 6.50047 4.7069C6.00513 4.7069 5.60392 4.15328 5.60392 3.47414C5.60392 2.795 6.00513 2.24138 6.50047 2.24138C6.99582 2.24138 7.39702 2.795 7.39702 3.47414ZM6.50047 5.15517C7.72202 5.15517 8.30926 3.27914 7.41271 2.24138H9.5084C9.58023 2.40613 9.69063 2.55118 9.83028 2.66431C9.96993 2.77743 10.1347 2.85532 10.3108 2.89138V4.72931C10.2145 4.75086 10.1212 4.78397 10.0329 4.82793C9.70564 4.99155 9.98133 5.005 9.75944 4.50293C9.65412 4.27378 9.4746 4.08685 9.24989 3.97236C9.02518 3.85788 8.76842 3.82253 8.52113 3.87204C8.27385 3.92155 8.05049 4.05302 7.88718 4.24519C7.72386 4.43736 7.63014 4.679 7.62116 4.93103V5.60345H3.56426C3.52034 5.38808 3.41405 5.19038 3.25863 5.03495C3.1032 4.87952 2.9055 4.77323 2.69013 4.72931V2.89138C2.8662 2.85532 3.03101 2.77743 3.17066 2.66431C3.31031 2.55118 3.42071 2.40613 3.49254 2.24138H5.58823C4.70737 3.27241 5.27444 5.15517 6.50047 5.15517ZM8.51771 10.7586C8.6366 10.7586 8.75062 10.8058 8.83469 10.8899C8.91876 10.974 8.96599 11.088 8.96599 11.2069V12.1034C8.96599 12.2223 8.91876 12.3364 8.83469 12.4204C8.75062 12.5045 8.6366 12.5517 8.51771 12.5517H4.25909C4.1402 12.5517 4.02618 12.5045 3.94211 12.4204C3.85805 12.3364 3.81082 12.2223 3.81082 12.1034V11.2069C3.81082 11.088 3.85805 10.974 3.94211 10.8899C4.02618 10.8058 4.1402 10.7586 4.25909 10.7586H8.51771ZM9.41426 8.96552C9.41426 9.32219 9.27258 9.66425 9.02037 9.91645C8.76817 10.1687 8.42611 10.3103 8.06944 10.3103H4.70737C4.3507 10.3103 4.00864 10.1687 3.75643 9.91645C3.50423 9.66425 3.36254 9.32219 3.36254 8.96552V6.94828H6.43099C6.10585 7.17459 5.84039 7.47632 5.65732 7.82763C5.47425 8.17894 5.37902 8.56937 5.37978 8.96552C5.37978 9.02496 5.4034 9.08197 5.44543 9.12401C5.48746 9.16604 5.54447 9.18966 5.60392 9.18966C5.66336 9.18966 5.72038 9.16604 5.76241 9.12401C5.80444 9.08197 5.82806 9.02496 5.82806 8.96552C5.82806 8.43051 6.04059 7.91742 6.41889 7.53911C6.7972 7.16081 7.31029 6.94828 7.8453 6.94828C7.90474 6.94828 7.96175 6.92466 8.00379 6.88263C8.04582 6.84059 8.06944 6.78358 8.06944 6.72414C8.06944 4.89069 7.99995 4.72707 8.26444 4.45586C8.32369 4.3931 8.39493 4.34286 8.47394 4.30811C8.55296 4.27336 8.63813 4.25481 8.72444 4.25355C8.81075 4.2523 8.89643 4.26837 8.97642 4.30081C9.0564 4.33325 9.12907 4.3814 9.19013 4.44241C9.48375 4.72931 9.41426 4.61052 9.41426 8.96552ZM11.2074 5.82759C11.2074 6.00592 11.1365 6.17695 11.0104 6.30305C10.8843 6.42916 10.7133 6.5 10.535 6.5H9.86254V5.82759C9.86254 5.64925 9.93338 5.47822 10.0595 5.35212C10.1856 5.22602 10.3566 5.15517 10.535 5.15517C10.5944 5.15517 10.6514 5.13156 10.6934 5.08952C10.7355 5.04749 10.7591 4.99048 10.7591 4.93103V2.68966C10.7591 2.63021 10.7355 2.5732 10.6934 2.53117C10.6514 2.48913 10.5944 2.46552 10.535 2.46552C10.4412 2.4638 10.3487 2.44305 10.2632 2.40452C10.1776 2.366 10.1008 2.31049 10.0374 2.24138C10.0172 2.21897 10.0374 2.24138 11.2074 2.24138V5.82759ZM12.3281 2.91379C12.3281 3.09213 12.2572 3.26316 12.1311 3.38926C12.005 3.51536 11.834 3.58621 11.6556 3.58621V2.24138C11.7151 2.24138 11.7721 2.21776 11.8141 2.17573C11.8562 2.1337 11.8798 2.07669 11.8798 2.01724C11.8798 1.9578 11.8562 1.90079 11.8141 1.85875C11.7721 1.81672 11.7151 1.7931 11.6556 1.7931H1.3453C1.28585 1.7931 1.22884 1.81672 1.18681 1.85875C1.14478 1.90079 1.12116 1.9578 1.12116 2.01724C1.12116 2.07669 1.14478 2.1337 1.18681 2.17573C1.22884 2.21776 1.28585 2.24138 1.3453 2.24138V3.58621C1.16696 3.58621 0.995933 3.51536 0.869831 3.38926C0.743729 3.26316 0.672885 3.09213 0.672885 2.91379V1.12069C0.672885 0.942354 0.743729 0.771323 0.869831 0.645221C0.995933 0.519119 1.16696 0.448276 1.3453 0.448276H11.6556C11.834 0.448276 12.005 0.519119 12.1311 0.645221C12.2572 0.771323 12.3281 0.942354 12.3281 1.12069V2.91379Z" fill="white"/>
</svg>
