<svg width="13" height="13" viewBox="0 0 13 13" fill="none" xmlns="http://www.w3.org/2000/svg">
<path d="M11.0633 8.58712C11.4876 8.12985 11.4019 7.59462 11.1287 7.27666C10.842 6.94304 10.3085 6.80209 9.84321 7.17848C9.43162 7.51143 8.3347 8.33926 8.10175 8.52049C8.07293 8.50987 8.04365 8.49957 8.01429 8.48926L8.26627 7.05643C8.27683 6.99643 8.26046 6.93475 8.22162 6.88806C8.18272 6.84135 8.12533 6.81438 8.06482 6.81438H6.30074V6.73618L6.876 6.15664C6.99006 6.1942 7.11048 6.21345 7.23303 6.21345C7.39504 6.21345 7.56058 6.18057 7.71935 6.11469C8.05677 5.97464 8.31558 5.7046 8.42938 5.37379C8.55701 5.0028 8.73718 4.73344 8.96988 4.56572C9.03701 4.51731 9.11312 4.46246 9.20427 4.39413C9.2627 4.3503 9.29362 4.27847 9.28541 4.20556C9.27721 4.13262 9.23112 4.0696 9.16442 4.04007C8.47334 3.73425 7.76418 3.77465 7.26748 4.14829C6.72291 4.55789 6.54809 5.27359 6.61 5.84164L6.30076 6.15319V4.16475C7.37967 4.095 8.23637 3.18903 8.23637 2.08477C8.23637 0.935219 7.30807 0 6.16701 0C5.02595 0 4.09765 0.935219 4.09765 2.08477C4.09765 3.14021 4.88034 4.01439 5.89158 4.15055V5.7256L5.51723 5.34846C5.57122 4.82833 5.40936 4.17642 4.91159 3.80201C4.37896 3.40138 3.649 3.46473 3.16182 3.70519C3.09776 3.73683 3.05469 3.79977 3.04815 3.87132C3.04157 3.94287 3.07249 4.01271 3.1297 4.05561C3.21264 4.11778 3.28184 4.16769 3.34291 4.21169C3.55108 4.36174 3.7125 4.60339 3.82715 4.93665C3.93226 5.24226 4.17122 5.49171 4.48269 5.621C4.62923 5.6818 4.78201 5.71213 4.93161 5.71213C5.04102 5.71213 5.14856 5.69548 5.25083 5.6631L5.89158 6.30865V6.81443H4.15831C4.0978 6.81443 4.04041 6.8414 4.00152 6.88811C3.96264 6.9348 3.9463 6.99645 3.95686 7.05648L4.09376 7.83505C4.09274 7.835 4.09161 7.83493 4.09059 7.83487C3.56157 7.80403 3.02958 7.9519 2.59201 8.25117C2.59101 8.25187 2.59002 8.25257 2.58902 8.25326L1.81155 8.8056C1.73858 8.74662 1.65087 8.70875 1.55568 8.69731C1.42139 8.6811 1.28899 8.71869 1.18276 8.80292L0.688111 9.19513C0.468814 9.36898 0.430786 9.69021 0.602975 9.91058L2.38392 12.2071C2.46752 12.3141 2.58748 12.382 2.72172 12.3981C2.7421 12.4005 2.76243 12.4018 2.78266 12.4018C2.89557 12.4018 3.00454 12.3639 3.09464 12.2925L3.58929 11.9003C3.73918 11.7814 3.80424 11.5938 3.77554 11.4166C4.15933 11.2743 4.56128 11.3628 5.05383 11.4711C5.45102 11.5585 5.89652 11.6564 6.41991 11.6564C6.89024 11.6564 7.42371 11.5768 8.04107 11.3397C8.31228 12.297 9.18857 13 10.2247 13C11.4766 13 12.4951 11.9739 12.4951 10.7127C12.4951 9.74975 11.9013 8.92393 11.0633 8.58717L11.0633 8.58712ZM7.51222 4.47861C7.8131 4.2523 8.21259 4.19013 8.6431 4.29494C8.3179 4.53467 8.25049 4.63487 8.04273 5.23881C7.96728 5.45814 7.79259 5.63847 7.56347 5.73356C7.37888 5.81019 7.18388 5.82186 7.01363 5.76871C6.97226 5.32659 7.10603 4.78412 7.51222 4.47861ZM5.11342 5.27475C4.96575 5.31755 4.79789 5.30595 4.63854 5.23982C4.43538 5.15549 4.28053 4.99578 4.21375 4.80164C4.02919 4.26515 3.96533 4.16215 3.68962 3.95583C4.01377 3.88701 4.38223 3.91824 4.66679 4.13231C5.02611 4.40258 5.14687 4.881 5.11344 5.27478L5.11342 5.27475ZM4.50678 2.08477C4.50678 1.16254 5.25154 0.412229 6.16696 0.412229C7.08238 0.412229 7.82714 1.16254 7.82714 2.08477C7.82714 3.007 7.08238 3.75734 6.16696 3.75734C5.25154 3.75734 4.50678 3.00703 4.50678 2.08477ZM7.8208 7.22663L7.62081 8.3641C6.59803 8.06912 5.37854 7.92912 4.51425 7.86337L4.40228 7.22663H7.8208ZM3.37253 11.5111C3.37076 11.5261 3.36365 11.5545 3.33621 11.5763L2.84156 11.9685C2.81412 11.9902 2.78494 11.9905 2.77013 11.9887C2.75522 11.9869 2.72701 11.9798 2.70584 11.9527L0.924899 9.65621C0.891832 9.61385 0.899121 9.55235 0.941113 9.51906L1.43576 9.12685C1.4573 9.1098 1.47983 9.10593 1.49573 9.10593C1.50011 9.10593 1.50399 9.10624 1.50719 9.1066C1.5221 9.1084 1.55031 9.11554 1.57148 9.14259L3.35245 11.4391C3.37406 11.4668 3.37429 11.4961 3.37253 11.5111V11.5111ZM7.96434 10.9275C6.73754 11.4191 5.89102 11.2333 5.14104 11.0683C4.60104 10.9495 4.08824 10.8368 3.57285 11.0538L2.07524 9.1227L2.82333 8.59124C3.18655 8.34331 3.62783 8.22072 4.06696 8.24641C5.02462 8.30224 6.80042 8.46489 8.01708 8.92847C8.01733 9.01156 7.95698 9.20335 7.82126 9.31833C7.2674 9.78747 5.65037 9.6267 5.07403 9.52512C4.96299 9.50533 4.85676 9.58046 4.83724 9.69258C4.81773 9.80471 4.89213 9.91148 5.0034 9.93116C5.02611 9.93515 5.567 10.0296 6.20969 10.0461C6.27324 10.0477 6.33544 10.0486 6.39636 10.0486C7.19194 10.0486 7.75942 9.90931 8.08459 9.63384C8.31327 9.44009 8.45994 9.09091 8.41848 8.83883C8.41639 8.82603 8.41334 8.81379 8.41028 8.80158C8.6187 8.64014 9.68253 7.83724 10.0995 7.49994C10.3766 7.27582 10.6607 7.36179 10.8194 7.54649C10.9754 7.72808 11.0417 8.0489 10.7153 8.35544C10.6799 8.3887 10.6439 8.42307 10.6077 8.45809C10.4831 8.43668 10.3552 8.42539 10.2247 8.42539C8.97283 8.42539 7.95432 9.45146 7.95432 10.7127C7.95432 10.7851 7.95785 10.8568 7.96442 10.9275L7.96434 10.9275ZM10.2247 12.5877C9.19839 12.5877 8.36345 11.7466 8.36345 10.7126C8.36345 9.67872 9.19839 8.83759 10.2247 8.83759C11.2509 8.83759 12.0859 9.67872 12.0859 10.7126C12.0859 11.7466 11.2509 12.5877 10.2247 12.5877ZM6.16699 3.4957C6.054 3.4957 5.96239 3.40341 5.96239 3.28959V3.13029C5.91907 3.12006 5.87644 3.1064 5.83514 3.08883C5.65402 3.01174 5.52245 2.86991 5.47419 2.69969C5.44312 2.59024 5.506 2.47613 5.61464 2.44485C5.72341 2.41345 5.83654 2.47693 5.86762 2.58635C5.88171 2.63605 5.92792 2.68078 5.99441 2.70909C6.10279 2.75526 6.23529 2.74864 6.3402 2.69188C6.42362 2.64674 6.47103 2.55471 6.45554 2.46804C6.4337 2.34615 6.29056 2.25543 6.07254 2.22537C5.80954 2.18912 5.60748 2.03595 5.53209 1.81569C5.46253 1.61243 5.5139 1.3812 5.66297 1.22651C5.74277 1.14373 5.84718 1.08287 5.96239 1.04884V0.87998C5.96239 0.766153 6.054 0.673865 6.16699 0.673865C6.27997 0.673865 6.37158 0.766153 6.37158 0.87998V1.0434C6.52233 1.08385 6.65616 1.17109 6.75828 1.29783C6.8295 1.3862 6.81613 1.516 6.72838 1.58775C6.64064 1.65943 6.5118 1.64603 6.4406 1.55763C6.36032 1.45805 6.26112 1.43345 6.19202 1.43036C6.10024 1.42652 6.01001 1.45818 5.95651 1.5137C5.91393 1.55789 5.89918 1.62369 5.91889 1.68133C5.94365 1.75365 6.01791 1.8018 6.12801 1.817C6.53036 1.87247 6.80334 2.08851 6.8582 2.39492C6.90551 2.65921 6.77513 2.92451 6.53377 3.05508C6.48206 3.08306 6.42753 3.10465 6.37155 3.12055V3.28961C6.37155 3.40344 6.27994 3.49573 6.16696 3.49573L6.16699 3.4957ZM10.9003 10.9594C10.5763 10.9594 10.3127 11.2249 10.3127 11.5513C10.3127 11.8777 10.5763 12.1433 10.9003 12.1433C11.2242 12.1433 11.4878 11.8777 11.4878 11.5513C11.4878 11.2249 11.2242 10.9594 10.9003 10.9594ZM10.9003 11.731C10.8019 11.731 10.7219 11.6504 10.7219 11.5513C10.7219 11.4522 10.8019 11.3716 10.9003 11.3716C10.9986 11.3716 11.0786 11.4522 11.0786 11.5513C11.0786 11.6504 10.9986 11.731 10.9003 11.731ZM11.2257 9.63168L9.55875 12.0301C9.51893 12.0874 9.45545 12.118 9.39096 12.118C9.35042 12.118 9.3095 12.1059 9.27378 12.0807C9.18123 12.0154 9.15872 11.8869 9.22355 11.7936L10.8905 9.39521C10.9553 9.30197 11.0829 9.27935 11.1755 9.34459C11.268 9.4099 11.2905 9.53841 11.2257 9.63168ZM10.1156 9.86724C10.1156 9.54086 9.85205 9.27531 9.52808 9.27531C9.20411 9.27531 8.94055 9.54086 8.94055 9.86724C8.94055 10.1936 9.20411 10.4592 9.52808 10.4592C9.85205 10.4592 10.1156 10.1936 10.1156 9.86724ZM9.34976 9.86724C9.34976 9.76815 9.42975 9.68753 9.52811 9.68753C9.62647 9.68753 9.70649 9.76815 9.70649 9.86724C9.70649 9.96633 9.62647 10.0469 9.52811 10.0469C9.42975 10.0469 9.34976 9.96633 9.34976 9.86724Z" fill="white"/>
</svg>
