<svg width="13" height="13" viewBox="0 0 13 13" fill="none" xmlns="http://www.w3.org/2000/svg">
<path d="M8.02555 6.20785C8.86684 5.36656 8.86684 3.99788 8.02555 3.15685C7.61811 2.74942 7.07619 2.52483 6.49992 2.52483C5.92364 2.52483 5.38198 2.74915 4.97429 3.15685C4.56685 3.56429 4.34226 4.10621 4.34226 4.68248C4.34226 5.25876 4.56659 5.80042 4.97429 6.20811C5.38172 6.61555 5.92364 6.84014 6.49992 6.84014C7.07619 6.84014 7.61785 6.61528 8.02555 6.20785ZM4.6596 4.68222C4.6596 4.19076 4.85116 3.72837 5.19861 3.38091C5.54633 3.0332 6.00846 2.8419 6.49992 2.8419C6.99137 2.8419 7.45377 3.03346 7.80122 3.38091C8.14894 3.72863 8.34024 4.19076 8.34024 4.68222C8.34024 5.17368 8.14868 5.63607 7.80122 5.98352C7.4535 6.33124 6.99137 6.52254 6.49992 6.52254C6.00846 6.52254 5.54607 6.33098 5.19861 5.98352C4.85089 5.6358 4.6596 5.17368 4.6596 4.68222ZM6.49992 6.17086C6.41246 6.17086 6.34138 6.09978 6.34138 6.01232V5.80729C6.05021 5.73753 5.83328 5.48071 5.83328 5.175C5.83328 5.08754 5.90436 5.01646 5.99181 5.01646C6.07927 5.01646 6.15035 5.08754 6.15035 5.175C6.15035 5.35916 6.3073 5.50898 6.49992 5.50898C6.69254 5.50898 6.84949 5.35916 6.84949 5.175C6.84949 5.02254 6.78871 4.84075 6.49992 4.84075C6.09486 4.84075 5.83328 4.58525 5.83328 4.18971C5.83328 3.884 6.05021 3.62691 6.34138 3.55742V3.35238C6.34138 3.26492 6.41246 3.19384 6.49992 3.19384C6.58738 3.19384 6.65845 3.26492 6.65845 3.35238V3.55742C6.94963 3.62717 7.16656 3.88426 7.16656 4.18971C7.16656 4.27716 7.09548 4.34824 7.00802 4.34824C6.92056 4.34824 6.84949 4.27716 6.84949 4.18971C6.84949 4.00554 6.69254 3.85573 6.49992 3.85573C6.3073 3.85573 6.15035 4.00554 6.15035 4.18971C6.15035 4.34216 6.21112 4.52368 6.49992 4.52368C6.90497 4.52368 7.16656 4.77919 7.16656 5.175C7.16656 5.48071 6.94963 5.7378 6.65845 5.80729V6.01232C6.65845 6.09978 6.58738 6.17086 6.49992 6.17086ZM12.9206 8.02651L11.1159 6.98467C11.0668 6.9564 11.0065 6.9564 10.9574 6.98467C10.9082 7.01294 10.8781 7.06526 10.8781 7.12207V7.53109H9.46848C10.208 6.76114 10.6144 5.75312 10.6144 4.68248C10.6144 3.58358 10.1864 2.55019 9.40929 1.77311C8.63194 0.995762 7.60068 0.567983 6.50467 0.567983C6.50177 0.567983 6.49886 0.567983 6.49595 0.567983H2.12172V0.1587C2.12172 0.102156 2.0916 0.0498394 2.04245 0.0213032C1.99331 -0.00723303 1.93306 -0.0069688 1.88392 0.0213032L0.0792673 1.0634C0.0301216 1.09168 0 1.14399 0 1.2008C0 1.25761 0.0301216 1.30966 0.0792673 1.3382L1.88392 2.38003C1.93306 2.40831 1.99331 2.40831 2.04245 2.38003C2.0916 2.35176 2.12172 2.29945 2.12172 2.24264V1.83335H3.53136C2.40708 3.00519 2.07945 4.74193 2.69033 6.2385C1.15413 6.5738 0 7.9446 0 9.58014C0 11.4659 1.53409 13 3.41985 13C5.30562 13 6.83971 11.4659 6.83971 9.58014C6.83971 9.31064 6.80827 9.04826 6.74908 8.79672H10.8781V9.20574C10.8781 9.26228 10.9082 9.3146 10.9574 9.34314C10.982 9.3574 11.0092 9.36427 11.0366 9.36427C11.0641 9.36427 11.0913 9.35714 11.1159 9.34314L12.9206 8.3013C12.9697 8.27303 12.9998 8.22071 12.9998 8.1639C12.9998 8.10709 12.9697 8.05478 12.9206 8.02651ZM1.96319 1.51628C1.87573 1.51628 1.80465 1.58736 1.80465 1.67482V1.96784L0.475604 1.20054L1.80465 0.433229V0.726254C1.80465 0.813712 1.87573 0.884788 1.96319 0.884788H6.49622H6.50415C7.5156 0.884788 8.4676 1.27954 9.18496 1.99691C9.90207 2.71401 10.2971 3.6676 10.2971 4.68196C10.2971 5.69631 9.90207 6.6499 9.18496 7.367C9.12868 7.42328 9.0695 7.47798 9.00978 7.53056H7.88181C8.19544 7.37836 8.4853 7.17359 8.73843 6.92046C9.33636 6.32252 9.66559 5.52747 9.66559 4.68196C9.66559 3.83644 9.33636 3.04139 8.73843 2.44345C8.1212 1.82648 7.31056 1.51787 6.49992 1.51787V1.51628H1.96319ZM6.13846 7.50783C5.64621 6.86366 4.93069 6.39862 4.10816 6.22978C3.37996 5.10736 3.53374 3.61951 4.48547 2.66777C5.59627 1.55697 7.40356 1.55697 8.5141 2.66777C9.05206 3.20573 9.34852 3.92125 9.34852 4.68222C9.34852 5.44319 9.05232 6.15844 8.5141 6.69667C7.91325 7.29751 7.0828 7.59741 6.23543 7.51893C6.20346 7.51576 6.17096 7.51206 6.13846 7.50783ZM3.81487 1.99717C3.87141 1.94063 3.93034 1.8862 3.99005 1.83362H5.11908C4.80888 1.98343 4.51824 2.18662 4.26141 2.44371C3.26766 3.43746 3.05707 4.95754 3.70654 6.17244C3.61195 6.16452 3.51656 6.16029 3.41985 6.16029C3.28167 6.16029 3.14559 6.16875 3.01189 6.18486C2.40074 4.76466 2.71623 3.09582 3.81487 1.99717ZM3.41985 12.6829C1.709 12.6829 0.317069 11.291 0.317069 9.58014C0.317069 7.86929 1.709 6.47736 3.41985 6.47736C5.13071 6.47736 6.52264 7.86929 6.52264 9.58014C6.5229 11.291 5.13097 12.6829 3.41985 12.6829ZM11.1952 8.93095V8.63792C11.1952 8.55046 11.1241 8.47939 11.0366 8.47939H6.65819C6.58236 8.25665 6.4838 8.04447 6.36596 7.84498C6.41114 7.84683 6.45658 7.84789 6.5015 7.84789H6.50784H11.0366C11.1241 7.84789 11.1952 7.77681 11.1952 7.68936V7.39633L12.5242 8.16364L11.1952 8.93095ZM3.41985 6.99735C1.99569 6.99735 0.837063 8.15598 0.837063 9.58014C0.837063 11.0043 1.99569 12.1629 3.41985 12.1629C4.84402 12.1629 6.00265 11.0043 6.00265 9.58014C6.00265 8.15598 4.84402 6.99735 3.41985 6.99735ZM4.68681 11.4575L4.57372 11.2617C4.52986 11.1858 4.43289 11.1599 4.35706 11.2035C4.28123 11.2474 4.25533 11.3444 4.29893 11.4202L4.41202 11.616C4.15704 11.7407 3.87538 11.8187 3.57813 11.8393V11.6131C3.57813 11.5256 3.50705 11.4546 3.41959 11.4546C3.33213 11.4546 3.26106 11.5256 3.26106 11.6131V11.8393C2.9638 11.8187 2.68214 11.7407 2.42716 11.616L2.54025 11.4202C2.58411 11.3444 2.55796 11.2474 2.48212 11.2035C2.40629 11.1597 2.30932 11.1858 2.26546 11.2617L2.15237 11.4575C1.91219 11.2947 1.70451 11.0873 1.54201 10.8471L1.7378 10.734C1.81364 10.6902 1.83953 10.5932 1.79593 10.5173C1.75207 10.4415 1.6551 10.4156 1.57927 10.4592L1.38348 10.5723C1.25876 10.3173 1.18082 10.0357 1.16021 9.73842H1.38638C1.47384 9.73842 1.54492 9.66734 1.54492 9.57988C1.54492 9.49242 1.47384 9.42135 1.38638 9.42135H1.16021C1.18082 9.12409 1.25876 8.84243 1.38348 8.58745L1.57953 8.70054C1.60437 8.71507 1.63185 8.72168 1.65854 8.72168C1.71323 8.72168 1.7666 8.69314 1.79593 8.64241C1.83979 8.56658 1.81364 8.46961 1.7378 8.42575L1.54201 8.31293C1.70478 8.07275 1.91219 7.86507 2.15237 7.70257L2.26546 7.89836C2.29479 7.94909 2.34816 7.97762 2.40286 7.97762C2.42981 7.97762 2.45702 7.97075 2.48186 7.95649C2.55769 7.91263 2.58359 7.81566 2.53999 7.73982L2.4269 7.54403C2.68188 7.41932 2.96354 7.34137 3.26079 7.32076V7.54694C3.26079 7.6344 3.33187 7.70547 3.41933 7.70547C3.50678 7.70547 3.57786 7.6344 3.57786 7.54694V7.32076C3.87511 7.34137 4.15678 7.41932 4.41175 7.54403L4.29867 7.73982C4.2548 7.81566 4.28096 7.91263 4.35679 7.95649C4.38163 7.97075 4.40911 7.97762 4.4358 7.97762C4.49049 7.97762 4.54387 7.94909 4.57319 7.89836L4.68628 7.70257C4.92646 7.86533 5.13414 8.07275 5.29664 8.31293L5.10085 8.42601C5.02502 8.46988 4.99912 8.56684 5.04272 8.64268C5.07205 8.69341 5.12542 8.72194 5.18012 8.72194C5.20707 8.72194 5.23428 8.71507 5.25912 8.70081L5.45517 8.58772C5.57989 8.8427 5.65783 9.12436 5.67844 9.42161H5.45227C5.36481 9.42161 5.29373 9.49269 5.29373 9.58014C5.29373 9.6676 5.36481 9.73868 5.45227 9.73868H5.67844C5.65783 10.0359 5.57989 10.3176 5.45517 10.5726L5.25938 10.4595C5.18355 10.4159 5.08658 10.4418 5.04272 10.5176C4.99886 10.5934 5.02502 10.6904 5.10085 10.7343L5.29664 10.8474C5.13467 11.0873 4.92725 11.2947 4.68681 11.4575ZM4.43263 9.58014C4.43263 9.6676 4.36155 9.73868 4.27409 9.73868H3.41985C3.3324 9.73868 3.26132 9.6676 3.26132 9.58014V8.31213C3.26132 8.22467 3.3324 8.1536 3.41985 8.1536C3.50731 8.1536 3.57839 8.22467 3.57839 8.31213V9.42161H4.27409C4.36181 9.42161 4.43263 9.49242 4.43263 9.58014ZM8.0015 10.0579C8.0015 10.1453 7.93043 10.2164 7.84297 10.2164H7.39749C7.31003 10.2164 7.23895 10.1453 7.23895 10.0579C7.23895 9.9704 7.31003 9.89933 7.39749 9.89933H7.84297C7.93069 9.89933 8.0015 9.97014 8.0015 10.0579ZM11.8618 10.0579C11.8618 10.1453 11.7907 10.2164 11.7033 10.2164H8.5503C8.46284 10.2164 8.39176 10.1453 8.39176 10.0579C8.39176 9.9704 8.46284 9.89933 8.5503 9.89933H11.7033C11.7907 9.89933 11.8618 9.97014 11.8618 10.0579ZM11.8618 11.0796C11.8618 11.1671 11.7907 11.2382 11.7033 11.2382H8.5503C8.46284 11.2382 8.39176 11.1671 8.39176 11.0796C8.39176 10.9922 8.46284 10.9211 8.5503 10.9211H11.7033C11.7907 10.9211 11.8618 10.9922 11.8618 11.0796ZM8.0015 11.0796C8.0015 11.1671 7.93043 11.2382 7.84297 11.2382H7.39749C7.31003 11.2382 7.23895 11.1671 7.23895 11.0796C7.23895 10.9922 7.31003 10.9211 7.39749 10.9211H7.84297C7.93069 10.9211 8.0015 10.9922 8.0015 11.0796ZM8.0015 12.1016C8.0015 12.1891 7.93043 12.2602 7.84297 12.2602H7.39749C7.31003 12.2602 7.23895 12.1891 7.23895 12.1016C7.23895 12.0142 7.31003 11.9431 7.39749 11.9431H7.84297C7.93069 11.9431 8.0015 12.0139 8.0015 12.1016ZM11.8618 12.1016C11.8618 12.1891 11.7907 12.2602 11.7033 12.2602H8.5503C8.46284 12.2602 8.39176 12.1891 8.39176 12.1016C8.39176 12.0142 8.46284 11.9431 8.5503 11.9431H11.7033C11.7907 11.9431 11.8618 12.0139 11.8618 12.1016Z" fill="white"/>
</svg>
