<svg width="14" height="13" viewBox="0 0 14 13" fill="none" xmlns="http://www.w3.org/2000/svg">
<path d="M13.4323 6.61568C13.4107 6.59411 13.3851 6.57699 13.3569 6.56532C13.3287 6.55364 13.2985 6.54763 13.268 6.54763C13.2375 6.54763 13.2073 6.55364 13.1791 6.56532C13.151 6.57699 13.1254 6.59411 13.1038 6.61568L12.7733 6.94619C12.6673 6.84387 12.2324 6.40265 12.1175 6.29039C12.0739 6.24701 12.0149 6.22269 11.9534 6.22276C11.8919 6.22284 11.8329 6.2473 11.7894 6.29079C11.7459 6.33428 11.7215 6.39324 11.7214 6.45474C11.7213 6.51624 11.7456 6.57527 11.789 6.61886L12.1152 6.94506L10.2811 8.77916L8.53247 7.03037C8.76253 6.9097 9.46536 6.5964 9.18716 6.26023C9.1656 6.23866 9.13999 6.22154 9.11181 6.20986C9.08363 6.19818 9.05342 6.19217 9.02292 6.19217C8.99241 6.19217 8.9622 6.19818 8.93402 6.20985C8.90584 6.22153 8.88023 6.23864 8.85867 6.26022C8.55345 6.56462 8.13998 6.73557 7.70892 6.73557C7.27785 6.73557 6.86438 6.56462 6.55917 6.26022L6.2307 5.93175C6.19266 5.89365 6.14254 5.86996 6.08895 5.86474C6.03535 5.85953 5.98162 5.87312 5.93694 5.90318L4.93475 6.5769C4.77826 6.66047 4.84587 6.95682 4.83358 7.09591C4.83292 7.30217 4.7641 7.50242 4.63782 7.66551C4.51153 7.82859 4.33488 7.94535 4.13535 7.99761V6.38453L5.53202 4.98764L9.09275 3.92262L11.1316 5.96147C11.1755 6.00346 11.2341 6.02659 11.2948 6.02592C11.3555 6.02524 11.4136 6.00082 11.4565 5.95788C11.4994 5.91494 11.5238 5.85689 11.5245 5.79616C11.5252 5.73544 11.502 5.67687 11.4601 5.63299L9.15988 3.33282L12.0873 0.402933C12.1293 0.359054 12.1524 0.300481 12.1518 0.239757C12.1511 0.179033 12.1267 0.120986 12.0837 0.0780474C12.0408 0.0351082 11.9827 0.0106908 11.922 0.0100241C11.8613 0.0093574 11.8027 0.0324944 11.7588 0.0744803L8.66721 3.16859C8.64244 3.19567 8.62394 3.22786 8.61302 3.26289C8.6021 3.29793 8.59903 3.33493 8.60403 3.37129C8.60902 3.40764 8.62197 3.44244 8.64194 3.47323C8.66191 3.50401 8.68841 3.53002 8.71957 3.5494L6.76939 4.13269L5.25344 3.569C5.38245 3.46851 5.45514 3.30183 5.32536 3.16858L2.23374 0.0744664C2.18986 0.0324842 2.13129 0.00935213 2.07057 0.010024C2.00984 0.0106959 1.9518 0.0351182 1.90886 0.078061C1.86592 0.121004 1.8415 0.179053 1.84083 0.239777C1.84017 0.300501 1.8633 0.359072 1.90529 0.402947L4.83267 3.33282L4.34202 3.82348C4.31028 3.85625 4.28882 3.89758 4.28028 3.94239C4.27174 3.9872 4.27649 4.03353 4.29394 4.07567C4.3114 4.11782 4.3408 4.15393 4.37853 4.17958C4.41625 4.20522 4.46066 4.21927 4.50627 4.22C4.64104 4.23738 4.80217 4.00512 4.89206 3.93038L6.03048 4.35371C5.76164 4.41914 5.49887 4.50744 5.24506 4.61762L3.73884 6.12411C3.71726 6.14567 3.70015 6.17127 3.68847 6.19945C3.67679 6.22763 3.67078 6.25784 3.67079 6.28834V8.25937C3.67077 8.28988 3.67677 8.3201 3.68843 8.34829C3.7001 8.37648 3.71721 8.40209 3.73878 8.42366C3.76036 8.44524 3.78597 8.46235 3.81416 8.47401C3.84235 8.48568 3.87256 8.49168 3.90307 8.49166C4.10316 8.48886 4.30042 8.44395 4.48199 8.35984C4.66356 8.27573 4.82538 8.15432 4.95691 8.00351C5.08843 7.8527 5.18671 7.67587 5.24535 7.48455C5.30398 7.29322 5.32165 7.09169 5.29721 6.89308L6.03742 6.3954L6.23069 6.58867C6.46211 6.81978 6.74463 6.99323 7.05544 7.09504C7.36624 7.19684 7.69663 7.22414 8.01994 7.17474L10.8286 9.98361C10.8922 10.0493 10.9275 10.1373 10.9269 10.2288C10.9262 10.3202 10.8896 10.4078 10.8249 10.4725C10.7603 10.5372 10.6728 10.5738 10.5813 10.5746C10.4899 10.5753 10.4018 10.5401 10.3361 10.4765L7.88302 8.02324C7.83918 7.98105 7.78054 7.95775 7.71971 7.95834C7.65887 7.95892 7.6007 7.98335 7.55768 8.02637C7.51466 8.06939 7.49024 8.12757 7.48966 8.1884C7.48907 8.24923 7.51238 8.30787 7.55456 8.3517L10.3361 11.1335C10.3687 11.1658 10.3946 11.2042 10.4123 11.2465C10.43 11.2889 10.4392 11.3343 10.4393 11.3802C10.4394 11.4261 10.4304 11.4715 10.4129 11.5139C10.3954 11.5563 10.3697 11.5949 10.3373 11.6273C10.3048 11.6598 10.2663 11.6855 10.2238 11.703C10.1814 11.7205 10.136 11.7295 10.0901 11.7294C10.0442 11.7293 9.99878 11.7201 9.95644 11.7024C9.91411 11.6847 9.87569 11.6588 9.8434 11.6262L7.06071 8.84327C7.01687 8.80111 6.95824 8.77783 6.89742 8.77842C6.8366 8.77902 6.77844 8.80345 6.73543 8.84646C6.69242 8.88947 6.668 8.94763 6.66741 9.00845C6.66681 9.06927 6.6901 9.1279 6.73226 9.17174L9.18623 11.6259C9.21857 11.6583 9.24422 11.6967 9.26171 11.739C9.2792 11.7812 9.2882 11.8265 9.28819 11.8723C9.28818 11.918 9.27916 11.9633 9.26164 12.0055C9.24413 12.0478 9.21846 12.0862 9.18611 12.1185C9.15376 12.1509 9.11536 12.1765 9.07309 12.194C9.03083 12.2115 8.98554 12.2205 8.9398 12.2205C8.89406 12.2205 8.84877 12.2114 8.80651 12.1939C8.76426 12.1764 8.72587 12.1508 8.69353 12.1184L6.24068 9.66558C6.19684 9.62343 6.13821 9.60015 6.0774 9.60075C6.01658 9.60136 5.95843 9.62578 5.91543 9.66879C5.87242 9.71179 5.848 9.76995 5.8474 9.83076C5.8468 9.89157 5.87008 9.9502 5.91223 9.99404L7.87122 11.953C7.9353 12.0187 7.97099 12.1068 7.97058 12.1985C7.97018 12.2903 7.93371 12.3781 7.86905 12.4432C7.8044 12.5082 7.71676 12.5452 7.62505 12.5461C7.53335 12.5471 7.44496 12.5119 7.37897 12.4482L2.9027 7.96993C2.85881 7.92801 2.80026 7.90494 2.73957 7.90564C2.67889 7.90634 2.62089 7.93075 2.57797 7.97367C2.53506 8.01658 2.51064 8.07459 2.50995 8.13527C2.50925 8.19596 2.53233 8.25451 2.57425 8.2984L3.38339 9.10793L2.83556 9.65559C2.73683 9.75577 2.66574 9.87981 2.62921 10.0156C2.59268 10.1514 2.59197 10.2944 2.62713 10.4306C2.66229 10.5668 2.73213 10.6915 2.82984 10.7927C2.92756 10.8938 3.04981 10.968 3.18469 11.0078C3.12188 11.1315 3.09165 11.2692 3.09685 11.4079C3.10205 11.5465 3.14252 11.6815 3.21443 11.8002C3.28634 11.9189 3.38732 12.0172 3.50782 12.086C3.62832 12.1548 3.76437 12.1917 3.9031 12.1933C4.03321 12.1924 4.16117 12.1599 4.27597 12.0987C4.31236 12.2299 4.38153 12.3496 4.47698 12.4467C4.62541 12.5946 4.82525 12.6795 5.03479 12.6837C5.24433 12.6878 5.44737 12.6109 5.60154 12.4689C5.6502 12.6039 5.73347 12.7237 5.84302 12.8164C5.95256 12.909 6.08453 12.9713 6.22571 12.9969C6.36689 13.0225 6.51231 13.0105 6.64742 12.9622C6.78252 12.9139 6.90256 12.831 6.99551 12.7217C7.08874 12.8308 7.20896 12.9136 7.34417 12.9617C7.47938 13.0098 7.62486 13.0216 7.76607 12.996C7.90728 12.9703 8.03928 12.908 8.14889 12.8154C8.25851 12.7227 8.3419 12.6029 8.39075 12.468C8.54487 12.6101 8.74794 12.6872 8.95755 12.6831C9.16717 12.6791 9.3671 12.5942 9.5156 12.4462C9.61108 12.3491 9.6803 12.2294 9.71674 12.0982C9.83183 12.1594 9.96005 12.1918 10.0904 12.1926C10.2291 12.1909 10.365 12.1539 10.4854 12.0851C10.6058 12.0163 10.7067 11.9179 10.7785 11.7993C10.8503 11.6806 10.8907 11.5456 10.8959 11.407C10.901 11.2685 10.8708 11.1308 10.808 11.0072C10.9428 10.9674 11.0651 10.8932 11.1628 10.7921C11.2605 10.6909 11.3303 10.5662 11.3655 10.43C11.4006 10.2939 11.3999 10.1509 11.3633 10.0151C11.3268 9.87932 11.2557 9.7553 11.157 9.65514L10.6096 9.10762L12.4437 7.27352L12.609 7.43889C12.6306 7.46046 12.6562 7.47758 12.6844 7.48925C12.7126 7.50093 12.7428 7.50694 12.7733 7.50694C12.8038 7.50694 12.834 7.50093 12.8622 7.48925C12.8904 7.47758 12.916 7.46046 12.9375 7.43889L13.4323 6.94414C13.4538 6.92258 13.4709 6.89698 13.4826 6.8688C13.4943 6.84062 13.5003 6.81042 13.5003 6.77991C13.5003 6.74941 13.4943 6.71921 13.4826 6.69103C13.4709 6.66285 13.4538 6.63725 13.4323 6.61568ZM3.16403 9.98406L3.7118 9.43647L4.2043 9.92919L3.65673 10.4768C3.59107 10.5405 3.50296 10.5759 3.41144 10.5752C3.31991 10.5746 3.23233 10.5379 3.16761 10.4732C3.10289 10.4085 3.06624 10.3209 3.06557 10.2294C3.0649 10.1378 3.10027 10.0497 3.16403 9.98406ZM4.14921 11.6266C4.08325 11.6912 3.99491 11.7277 3.90263 11.7287C3.83419 11.7277 3.76756 11.7066 3.71095 11.6681C3.65434 11.6297 3.61023 11.5755 3.58406 11.5122C3.55789 11.449 3.55081 11.3794 3.56368 11.3122C3.57656 11.245 3.60883 11.183 3.65652 11.1339L4.5327 10.2577L5.02519 10.7505L4.14921 11.6266ZM5.29907 12.1191C5.26678 12.1515 5.22838 12.1772 5.1861 12.1947C5.14381 12.2122 5.09848 12.2211 5.05272 12.221C4.98427 12.22 4.91759 12.199 4.86094 12.1606C4.80428 12.1222 4.76012 12.068 4.73391 12.0047C4.70771 11.9415 4.7006 11.872 4.71348 11.8047C4.72636 11.7375 4.75865 11.6755 4.80637 11.6264L5.35357 11.079L5.84614 11.5718L5.29907 12.1191ZM6.61249 12.4478C6.5772 12.4815 6.53527 12.5076 6.48938 12.5242C6.44348 12.5409 6.39462 12.5478 6.3459 12.5446C6.29718 12.5413 6.24967 12.528 6.20639 12.5054C6.16312 12.4828 6.12502 12.4514 6.09452 12.4133C6.06402 12.3751 6.04178 12.3311 6.02924 12.2839C6.01669 12.2367 6.0141 12.1874 6.02163 12.1392C6.02916 12.091 6.04665 12.0448 6.07298 12.0037C6.09931 11.9626 6.13391 11.9274 6.17458 11.9004L6.66713 12.3932L6.61249 12.4478Z" fill="white"/>
<path d="M1.87721 6.9448L4.01497 4.80704C4.05698 4.76317 4.08013 4.70458 4.07947 4.64385C4.07881 4.58311 4.05438 4.52505 4.01143 4.4821C3.96848 4.43915 3.91041 4.41473 3.84968 4.41408C3.78894 4.41342 3.73036 4.43658 3.68649 4.47858L1.21891 6.94616L0.888408 6.61565C0.844564 6.5735 0.785939 6.55023 0.725125 6.55083C0.66431 6.55143 0.606157 6.57586 0.563153 6.61886C0.52015 6.66187 0.495726 6.72002 0.495128 6.78084C0.49453 6.84165 0.517806 6.90027 0.559955 6.94412L1.05468 7.43885C1.07625 7.46043 1.10185 7.47754 1.13003 7.48922C1.15821 7.50089 1.18841 7.5069 1.21892 7.5069C1.24942 7.5069 1.27962 7.50089 1.3078 7.48922C1.33598 7.47754 1.36159 7.46043 1.38315 7.43885L1.54875 7.27326L1.91646 7.64097C1.93802 7.66254 1.96363 7.67964 1.99181 7.69132C2.01999 7.70299 2.05019 7.709 2.08069 7.709C2.11119 7.709 2.14139 7.70299 2.16957 7.69132C2.19775 7.67964 2.22336 7.66254 2.24492 7.64097C2.26649 7.6194 2.2836 7.5938 2.29527 7.56562C2.30694 7.53744 2.31295 7.50723 2.31295 7.47673C2.31295 7.44623 2.30694 7.41603 2.29527 7.38785C2.2836 7.35967 2.26649 7.33407 2.24492 7.3125L1.87721 6.9448Z" fill="white"/>
</svg>
