<svg width="13" height="13" viewBox="0 0 13 13" fill="none" xmlns="http://www.w3.org/2000/svg">
<g clip-path="url(#clip0_8584_9580)">
<path d="M6.5 0C2.91325 0 0 2.91325 0 6.5C0 10.0867 2.91325 13 6.5 13C10.0867 13 13 10.0867 13 6.5C13 2.91325 10.0867 0 6.5 0ZM6.5 12.4361C3.22651 12.4361 0.563855 9.77349 0.563855 6.5C0.563855 3.22651 3.22651 0.563855 6.5 0.563855C9.77349 0.563855 12.4361 3.22651 12.4361 6.5C12.4361 9.77349 9.77349 12.4361 6.5 12.4361Z" fill="white"/>
<path d="M9.88218 5.09038H7.90868V3.11689C7.90868 2.96026 7.78338 2.83496 7.62676 2.83496H5.37133C5.21471 2.83496 5.08941 2.96026 5.08941 3.11689V5.09038H3.11591C2.95929 5.09038 2.83398 5.21568 2.83398 5.37231V7.62773C2.83398 7.78436 2.95929 7.90966 3.11591 7.90966H5.08941V9.88315C5.08941 10.0398 5.21471 10.1651 5.37133 10.1651H7.62676C7.78338 10.1651 7.90868 10.0398 7.90868 9.88315V7.90966H9.88218C10.0388 7.90966 10.1641 7.78436 10.1641 7.62773V5.37231C10.1484 5.21568 10.0231 5.09038 9.88218 5.09038ZM9.61591 7.3458H9.60025H7.62676C7.47013 7.3458 7.34483 7.47111 7.34483 7.62773V9.60123H5.65326V7.62773C5.65326 7.47111 5.52796 7.3458 5.37133 7.3458H3.39784V5.65424H5.37133C5.52796 5.65424 5.65326 5.52894 5.65326 5.37231V3.39882H7.36049V5.37231C7.36049 5.52894 7.48579 5.65424 7.64242 5.65424H9.61591V7.3458Z" fill="white"/>
</g>
<defs>
<clipPath id="clip0_8584_9580">
<rect width="13" height="13" fill="white"/>
</clipPath>
</defs>
</svg>
