<svg width="14" height="14" viewBox="0 0 14 14" fill="none" xmlns="http://www.w3.org/2000/svg">
<path d="M13.4487 13.3169L12.8284 10.1863C12.7358 9.71916 12.4065 9.36449 11.9475 9.23772L9.41106 8.53619L8.84331 7.87431V7.20892C9.13299 6.80678 9.32745 6.34746 9.35145 5.9116L9.55968 5.92832C9.57505 5.92967 9.59015 5.93021 9.60526 5.93021C9.8507 5.93021 10.0497 5.76514 10.1552 5.47061C10.3146 5.02612 10.2396 4.35318 9.90113 4.11799C9.89439 4.1134 9.88738 4.10882 9.87983 4.10396L9.9629 3.5702C9.97396 3.49899 9.99527 3.42024 10.0179 3.33635C10.1026 3.02376 10.2081 2.63483 9.93026 2.17523C9.84018 2.02608 9.71908 1.8861 9.60175 1.75097C9.48415 1.61503 9.37303 1.48692 9.31019 1.36905C8.88754 0.57636 7.94705 0.51001 7.02031 0.51001H6.97419C6.04717 0.51001 5.10695 0.57636 4.68403 1.36932C4.62119 1.48719 4.51007 1.61557 4.39247 1.75124C4.27515 1.88664 4.15404 2.02662 4.06396 2.1755C3.78615 2.6351 3.89161 3.02402 3.9763 3.33662C3.99896 3.42024 4.02026 3.49926 4.03132 3.57047L4.1144 4.10423C4.10738 4.10855 4.10037 4.11313 4.09417 4.11745C3.7554 4.35156 3.67988 5.0245 3.83875 5.46953C3.94421 5.76487 4.14299 5.93048 4.38897 5.93048C4.40407 5.93048 4.41917 5.92994 4.43455 5.92859L4.64843 5.91133C4.67217 6.34449 4.86447 6.80112 5.15118 7.20137V7.87431L4.58343 8.53619L2.04703 9.23772C1.58824 9.36476 1.25892 9.71943 1.16641 10.1863L0.546064 13.3169C0.536624 13.3644 0.549031 13.4137 0.579779 13.4509C0.610526 13.4882 0.656378 13.51 0.704927 13.51H13.2909C13.3395 13.51 13.3853 13.4884 13.4161 13.4509C13.4468 13.4135 13.4581 13.3644 13.4487 13.3169ZM9.8631 10.3948L9.14701 10.7257C9.10332 10.746 9.07068 10.7848 9.05854 10.8315C9.04641 10.8781 9.05531 10.9278 9.08363 10.9671L9.58422 11.6643L8.55633 13.1866H7.88744L7.88205 13.1346L8.77912 8.29615L9.18099 8.76464L9.8631 10.3948ZM6.4388 13.1216L6.66941 10.9043H7.32509L7.55542 13.1216L7.54328 13.1866H6.45094L6.4388 13.1216ZM6.99711 9.67196L7.61179 10.2265L7.48476 10.4903C7.45671 10.5485 7.40573 10.5806 7.341 10.5806H6.65322C6.58849 10.5806 6.53752 10.5485 6.50947 10.4903L6.38243 10.2265L6.99711 9.67196ZM7.77632 10.6308L7.86236 10.4525L8.02338 10.5979L7.76391 11.9972L7.63957 10.8015C7.69621 10.7568 7.74341 10.699 7.77632 10.6308ZM8.09242 10.2243L7.23851 9.45403L8.43523 8.37436L8.09242 10.2243ZM5.9018 10.2243L5.55872 8.37436L6.75545 9.45403L5.9018 10.2243ZM6.13213 10.4525L6.21817 10.6308C6.25108 10.699 6.29828 10.7568 6.35492 10.8013L6.23058 11.9969L5.97112 10.5976L6.13213 10.4525ZM9.8507 5.36192C9.78947 5.53318 9.70074 5.61545 9.58611 5.60628L9.35442 5.58767V4.81116L9.43156 4.44731C9.55158 4.35723 9.64733 4.33619 9.71665 4.38447C9.9014 4.51258 9.97153 5.02423 9.8507 5.36192ZM4.34042 2.34326C4.41621 2.21785 4.52814 2.08838 4.63656 1.9635C4.76063 1.82029 4.88902 1.67194 4.96912 1.52198C5.30816 0.886262 6.1111 0.833668 6.97392 0.833668H7.02004C7.88313 0.833668 8.6858 0.886262 9.02483 1.52171C9.10493 1.67167 9.23332 1.82002 9.35739 1.96323C9.46581 2.08838 9.57775 2.21758 9.65354 2.34299C9.85987 2.68418 9.78138 2.97278 9.70586 3.25193C9.68078 3.34445 9.65704 3.43183 9.64329 3.52057L9.56264 4.03977C9.45368 4.05622 9.32583 4.11071 9.18126 4.23262C9.15375 4.25581 9.1346 4.28764 9.12732 4.3227L9.06879 4.59835C8.98437 4.54792 8.93555 4.4465 8.92288 4.34536L8.85086 3.77167C8.81041 3.44829 8.62457 3.20042 8.37778 3.13973C8.20571 3.09739 8.01825 3.10548 7.81974 3.11384C7.4238 3.13083 6.93103 3.15187 6.28183 2.79153C6.06093 2.66908 5.77503 2.66827 5.43249 2.78964L5.4128 2.79665C5.20647 2.86975 5.07323 3.05801 5.07323 3.27702V4.36532C5.07323 4.46808 5.01471 4.55709 4.92921 4.60132L4.87068 4.32513C4.86312 4.29007 4.84451 4.25851 4.817 4.23532C4.67082 4.11125 4.54162 4.05595 4.43185 4.03923L4.35121 3.51976C4.33745 3.43102 4.31372 3.34364 4.28863 3.25112C4.21257 2.97305 4.13435 2.68445 4.34042 2.34326ZM4.40812 5.60601C4.29349 5.61545 4.20448 5.53292 4.14326 5.36084C4.02269 5.02288 4.09309 4.5115 4.27784 4.38393C4.3477 4.33565 4.44453 4.3575 4.5659 4.44947L4.64546 4.82383V5.58713L4.40812 5.60601ZM4.96885 4.93307C5.21564 4.86267 5.39662 4.63503 5.39662 4.36586V3.27756C5.39662 3.19664 5.44409 3.12948 5.52069 3.10224L5.54038 3.09523C5.79175 3.00622 5.98838 2.99948 6.12458 3.075C6.85362 3.4793 7.41975 3.45503 7.83323 3.4375C8.01556 3.42968 8.1728 3.42293 8.30011 3.45422C8.41366 3.48227 8.5059 3.62603 8.52909 3.81213L8.60111 4.38582C8.63563 4.66012 8.80366 4.86672 9.03049 4.9328V5.82124C9.03049 6.28623 8.77426 6.8413 8.34542 7.30575C7.92062 7.76562 7.4176 8.04019 6.99954 8.04019C6.58148 8.04019 6.07873 7.76562 5.65366 7.30575C5.22454 6.8413 4.96858 6.2865 4.96858 5.82124V4.93307H4.96885ZM6.99981 8.36412C7.51496 8.36412 8.07516 8.04963 8.51992 7.59408V7.86244L6.99711 9.2361L5.4743 7.86244V7.58868C5.91987 8.04693 6.48276 8.36412 6.99981 8.36412ZM5.2151 8.29642L6.11218 13.1348L6.10678 13.1869H5.43789L4.41027 11.6643L4.91086 10.9671C4.93891 10.928 4.94809 10.8781 4.93595 10.8315C4.92381 10.7848 4.89118 10.746 4.84748 10.7257L4.13139 10.3948L4.81323 8.76518L5.2151 8.29642ZM1.48332 10.2494C1.55264 9.89987 1.78945 9.64472 2.1328 9.54978L4.39571 8.92377L3.7724 10.4137C3.73868 10.4941 3.77482 10.5866 3.85385 10.623L4.5338 10.9372L4.08176 11.567C4.04238 11.622 4.0413 11.6959 4.07906 11.752L5.04734 13.1866H0.901279L1.48332 10.2494ZM8.94688 13.1866L9.91543 11.752C9.95346 11.6959 9.95238 11.622 9.91273 11.567L9.46069 10.9372L10.1406 10.623C10.2197 10.5866 10.2555 10.4941 10.2221 10.4137L9.59878 8.92377L11.8617 9.54978C12.2053 9.64472 12.4419 9.89987 12.5112 10.2494L13.0929 13.1866H8.94688Z" fill="white"/>
</svg>
