<svg width="13" height="13" viewBox="0 0 13 13" fill="none" xmlns="http://www.w3.org/2000/svg">
<g clip-path="url(#clip0_8584_8716)">
<path d="M11.3898 4.24927H10.4527V2.40518C10.4527 2.08939 10.3271 1.79507 10.1216 1.57988L9.51608 0.946283C9.00222 0.416838 8.93738 0.267262 8.63132 0.118701C8.48913 0.0477344 8.30177 0 8.11286 0H3.69002C3.03116 0 2.49534 0.536072 2.49534 1.19468V7.63725H2.24339C1.86329 7.63725 1.55416 7.94638 1.55416 8.32647C1.55416 8.51563 1.63074 8.68692 1.75429 8.81149C1.63074 8.93605 1.55416 9.10734 1.55416 9.2965C1.55416 9.36747 1.56411 9.40959 1.56769 9.43282C0.0720344 9.58496 -0.523782 11.4362 0.570833 12.4409C0.901419 12.7445 1.34022 12.9165 1.81604 12.8971C1.97328 12.8971 5.21064 12.8958 5.21473 12.8958C5.59457 12.8958 5.90396 12.5867 5.90396 12.2066C5.90396 12.0175 5.82738 11.8462 5.70383 11.7216C5.81999 11.6044 5.89451 11.4464 5.90294 11.2708H6.16154V11.4089C6.16154 12.2863 6.87527 13 7.75265 13H11.3898C12.2672 13 12.9809 12.2863 12.9809 11.4089V5.84038C12.9809 4.963 12.2672 4.24927 11.3898 4.24927ZM9.76397 1.79712C9.76397 1.79712 9.76422 1.79712 9.76447 1.79763C9.76473 1.79763 9.76473 1.79763 9.76473 1.79763C9.76498 1.79814 9.76549 1.79865 9.76574 1.7989L9.766 1.79915C9.76651 1.79992 9.76701 1.80042 9.76752 1.80068C9.76777 1.80093 9.76803 1.80119 9.76828 1.80169C9.76854 1.80195 9.76879 1.80195 9.76879 1.8022C9.76904 1.80245 9.7693 1.80246 9.76955 1.80296C9.77006 1.80322 9.77031 1.80372 9.77057 1.80398H8.74717V0.72216C9.54929 1.56993 9.73002 1.76112 9.76397 1.79712ZM2.24339 8.04568H5.21475C5.36946 8.04568 5.49555 8.17179 5.49555 8.32647C5.49555 8.48143 5.36943 8.60727 5.21475 8.60727H2.24339C2.08868 8.60727 1.9626 8.48143 1.9626 8.32647C1.96257 8.17177 2.08868 8.04568 2.24339 8.04568ZM2.24339 9.0157H5.21475C5.36946 9.0157 5.49555 9.14182 5.49555 9.2965C5.49555 9.45146 5.36943 9.57729 5.21475 9.57729H3.16235C3.07887 9.539 2.99234 9.50785 2.90375 9.48386C2.77151 9.44785 2.63469 9.42744 2.49532 9.42386C2.45525 9.42284 2.41516 9.4231 2.37509 9.42487H1.99398C1.97382 9.38633 1.96257 9.34268 1.96257 9.29647C1.96257 9.14182 2.08868 9.0157 2.24339 9.0157ZM5.49555 10.2665C5.49555 10.4215 5.36943 10.5473 5.21475 10.5473H4.0719C3.9943 10.3408 3.87738 10.1506 3.72524 9.98575H5.21475C5.36943 9.98575 5.49555 10.1118 5.49555 10.2665ZM1.24985 9.89998C1.12554 10.0179 1.01499 10.1581 0.928206 10.3125H0.690296C0.845763 10.1198 1.03901 9.98268 1.24985 9.89998ZM0.473054 10.6954H0.770454C0.763827 10.724 0.730109 10.834 0.714798 11.0015H0.400564C0.412827 10.8963 0.437075 10.7937 0.473054 10.6954ZM0.505986 11.7076C0.460816 11.6049 0.428392 11.4965 0.410009 11.3844H0.721958C0.777868 11.7014 0.780915 11.6468 0.794956 11.7076H0.505986ZM0.760755 12.0905C0.886083 12.0902 0.958853 12.091 0.975941 12.0899C1.05226 12.2104 1.14415 12.322 1.25062 12.4223C1.06554 12.3496 0.900911 12.2385 0.760755 12.0905ZM2.50324 12.5145C1.75607 12.5466 1.12349 11.9679 1.09182 11.219C1.04051 10.0266 2.46467 9.33992 3.36144 10.1632C4.24549 10.9747 3.70736 12.4649 2.50324 12.5145ZM5.21475 12.4874H3.56647C3.74898 12.333 3.89883 12.1418 4.00527 11.9258H5.21475C5.36946 11.9258 5.49555 12.0519 5.49555 12.2066C5.49555 12.3616 5.36943 12.4874 5.21475 12.4874ZM5.49326 11.2708C5.4764 11.4097 5.35796 11.5174 5.21475 11.5174H4.14619C4.18321 11.3402 4.19367 11.1493 4.17094 10.9558H5.21475C5.3868 10.9558 5.5152 11.1097 5.49326 11.2708ZM6.16154 10.8623H5.79292C5.76715 10.8223 5.73727 10.7853 5.70383 10.7516C5.97058 10.4825 5.97084 10.0506 5.70383 9.78154C5.82738 9.65697 5.90396 9.48568 5.90396 9.29652C5.90396 9.10736 5.82738 8.93608 5.70383 8.81151C6.13318 8.37858 5.82636 7.63727 5.21473 7.63727H2.90375V1.19468C2.90375 0.761236 3.25653 0.408434 3.69 0.408434H8.33877V2.00822C8.33877 2.12106 8.43015 2.21244 8.54298 2.21244H10.02C10.0626 2.37786 10.0363 2.32322 10.0442 4.24925H7.75265C6.87527 4.24925 6.16154 4.96298 6.16154 5.84035V10.8623ZM12.598 11.4089C12.598 12.0751 12.0561 12.6171 11.3898 12.6171H7.75267C7.08668 12.6171 6.54446 12.0752 6.54446 11.4089V5.84038C6.54446 5.17413 7.08665 4.63216 7.75267 4.63216H11.3898C12.0561 4.63216 12.598 5.1741 12.598 5.84038V11.4089H12.598Z" fill="white"/>
<path d="M11.3769 5.06641H7.76679C7.4118 5.06641 7.12402 5.35418 7.12402 5.70917V6.4099C7.12402 6.76489 7.4118 7.05266 7.76679 7.05266H8.46137C8.5671 7.05266 8.65282 6.96695 8.65282 6.86122C8.65282 6.75549 8.5671 6.66977 8.46137 6.66977H7.76679C7.62386 6.66977 7.50691 6.55282 7.50691 6.4099V5.70917C7.50691 5.56625 7.62386 5.4493 7.76679 5.4493H11.3769C11.5203 5.4493 11.6367 5.56597 11.6367 5.70917V6.4099C11.6367 6.5531 11.5203 6.66977 11.3769 6.66977H9.28695C9.18122 6.66977 9.0955 6.75549 9.0955 6.86122C9.0955 6.96695 9.18122 7.05266 9.28695 7.05266H11.3769C11.7314 7.05266 12.0196 6.7642 12.0196 6.4099V5.70917C12.0196 5.35487 11.7314 5.06641 11.3769 5.06641Z" fill="white"/>
<path d="M8.17905 9.10071H7.52479C7.30397 9.10071 7.12402 9.28042 7.12402 9.50147V10.1555C7.12402 10.3766 7.30399 10.5563 7.52479 10.5563H8.17905C8.40013 10.5563 8.57982 10.3765 8.57982 10.1555V9.50147C8.57982 9.28042 8.40011 9.10071 8.17905 9.10071ZM8.1969 10.1555C8.1969 10.1654 8.18873 10.1734 8.17903 10.1734H7.52476C7.51506 10.1734 7.50689 10.1654 7.50689 10.1555V9.50147C7.50689 9.49152 7.51506 9.4836 7.52476 9.4836H8.17903C8.18873 9.4836 8.1969 9.49152 8.1969 9.50147V10.1555Z" fill="white"/>
<path d="M11.6388 7.39038H10.9847C10.7637 7.39038 10.584 7.5701 10.584 7.79115V8.44516C10.584 8.66623 10.7637 8.84592 10.9847 8.84592H11.6388C11.8598 8.84592 12.0395 8.66621 12.0395 8.44516V7.79115C12.0395 7.5701 11.8598 7.39038 11.6388 7.39038ZM11.6566 8.44516C11.6566 8.45511 11.6487 8.46303 11.6388 8.46303H10.9847C10.9751 8.46303 10.9669 8.45511 10.9669 8.44516C10.9748 7.79805 10.9503 7.77327 10.9847 7.77327H11.6388C11.6487 7.77327 11.6566 7.78119 11.6566 7.79115V8.44516Z" fill="white"/>
<path d="M8.17905 7.39038H7.52479C7.30397 7.39038 7.12402 7.5701 7.12402 7.79115V8.44516C7.12402 8.66623 7.30399 8.84592 7.52479 8.84592H8.17905C8.40013 8.84592 8.57982 8.66621 8.57982 8.44516V7.79115C8.57982 7.5701 8.40011 7.39038 8.17905 7.39038ZM8.1969 8.44516C8.1969 8.45511 8.18873 8.46303 8.17903 8.46303H7.52476C7.51506 8.46303 7.50689 8.45511 7.50689 8.44516V7.79115C7.50689 7.78119 7.51506 7.77327 7.52476 7.77327H8.17903C8.18873 7.77327 8.1969 7.78119 8.1969 7.79115V8.44516Z" fill="white"/>
<path d="M8.4787 10.8623C8.40517 10.7796 8.29797 10.7273 8.17876 10.7273H7.52449C7.40529 10.7273 7.29806 10.7796 7.22481 10.8623C7.08569 11.0183 7.13292 11.1883 7.12373 11.2708V11.7821C7.12373 12.0031 7.3037 12.1828 7.52449 12.1828H8.17876C8.39984 12.1828 8.57953 12.0031 8.57953 11.7821V11.2708C8.57033 11.1901 8.61705 11.0183 8.4787 10.8623ZM8.17876 11.7999C7.53242 11.792 7.50662 11.8166 7.50662 11.7821C7.50662 11.0895 7.49895 11.1102 7.52449 11.1102H8.17876C8.21017 11.1102 8.19077 11.1538 8.19664 11.2708C8.19664 11.2708 8.21322 11.7999 8.17876 11.7999Z" fill="white"/>
<path d="M11.5372 9.10071H11.0864C10.8094 9.10071 10.584 9.32613 10.584 9.60309V11.6343C10.584 11.9368 10.8301 12.1829 11.1323 12.1829H11.4912C11.7937 12.1829 12.0396 11.9368 12.0396 11.6343V9.60309C12.0396 9.32613 11.8144 9.10071 11.5372 9.10071ZM11.4912 11.8H11.1323C11.0412 11.8 10.9669 11.7257 10.9669 11.6343V9.60309C10.9669 9.53722 11.0205 9.48362 11.0864 9.48362H11.5372C11.603 9.48362 11.6566 9.53722 11.6566 9.60309V11.6343C11.6567 11.7257 11.5826 11.8 11.4912 11.8Z" fill="white"/>
<path d="M4.93695 5.56127C4.70351 5.4755 4.53487 5.41355 4.53487 5.19727C4.53487 5.00016 4.66578 4.90022 4.92393 4.90022C5.19797 4.90022 5.27175 5.02086 5.36829 5.02086C5.47336 5.02086 5.53147 4.90937 5.53147 4.83225C5.53147 4.67275 5.2713 4.59366 5.03872 4.57279V4.42897C5.03872 4.32894 4.95734 4.24756 4.8573 4.24756C4.75726 4.24756 4.67589 4.32894 4.67589 4.42897V4.59571C4.35787 4.67123 4.18313 4.89088 4.18313 5.21634C4.18313 5.66194 4.51118 5.78522 4.77483 5.88431C5.03295 5.98131 5.23687 6.05794 5.23687 6.35264C5.23687 6.59606 5.10171 6.71949 4.83509 6.71949C4.44488 6.71949 4.44123 6.45604 4.29239 6.45604C4.20022 6.45604 4.12598 6.55922 4.12598 6.64464C4.12598 6.79551 4.35066 6.99381 4.67589 7.04528V7.18424C4.67589 7.28428 4.75726 7.36565 4.8573 7.36565C4.95734 7.36565 5.03872 7.28428 5.03872 7.18424V7.04154C5.38855 6.97571 5.58863 6.71883 5.58863 6.33358C5.5886 5.8007 5.2273 5.66796 4.93695 5.56127Z" fill="white"/>
<path d="M10.1762 10.8396C10.1042 10.7702 10.0062 10.7273 9.89844 10.7273H9.24417C9.12496 10.7273 9.01774 10.7796 8.94423 10.8623C8.80562 11.0186 8.8526 11.1883 8.8434 11.2708V11.7821C8.8434 12.0031 9.02312 12.1828 9.24417 12.1828H9.89844C10.1193 12.1828 10.2989 12.0031 10.2989 11.7821V11.1278C10.2989 11.0147 10.2517 10.9124 10.1762 10.8396ZM9.89844 11.7999C9.25209 11.792 9.2263 11.8166 9.2263 11.7821V11.1278C9.2263 11.1181 9.23447 11.1102 9.24417 11.1102H9.89844C9.90814 11.1102 9.91606 11.1181 9.91606 11.1278C9.90839 11.7757 9.93238 11.7999 9.89844 11.7999Z" fill="white"/>
<path d="M9.89878 7.39038H9.24452C9.02344 7.39038 8.84375 7.5701 8.84375 7.79115V8.44516C8.84375 8.66623 9.02346 8.84592 9.24452 8.84592H9.89878C9.95035 8.84592 9.99935 8.83623 10.0445 8.81835C10.1936 8.7599 10.2993 8.61464 10.2993 8.44513V7.79112C10.2993 7.56931 10.1186 7.39038 9.89878 7.39038ZM9.89878 8.46303H9.24452C9.23482 8.46303 9.22664 8.45511 9.22664 8.44516V7.79115C9.22664 7.75669 9.25038 7.78094 9.89878 7.77327C9.90848 7.77327 9.9164 7.78119 9.9164 7.79115V8.44516C9.9164 8.45511 9.90848 8.46303 9.89878 8.46303Z" fill="white"/>
<path d="M10.0445 9.12828C9.99938 9.11041 9.95035 9.10071 9.89878 9.10071H9.24452C9.02344 9.10071 8.84375 9.28042 8.84375 9.50147V10.1555C8.84375 10.3766 9.02346 10.5563 9.24452 10.5563H9.89878C10.1196 10.5563 10.2993 10.3765 10.2993 10.1555V9.50147C10.2993 9.33199 10.1936 9.18673 10.0445 9.12828ZM9.9164 10.1555C9.9164 10.1654 9.90848 10.1734 9.89878 10.1734H9.24452C9.23482 10.1734 9.22664 10.1654 9.22664 10.1555V9.50147C9.22664 9.49152 9.23482 9.4836 9.24452 9.4836H9.89878C9.90848 9.4836 9.9164 9.49152 9.9164 9.50147V10.1555Z" fill="white"/>
<path d="M8.79346 2.61633H8.31254C8.20686 2.61633 8.12109 2.7021 8.12109 2.80778C8.12109 2.91371 8.20686 2.99922 8.31254 2.99922H8.79346C8.89914 2.99922 8.98491 2.91371 8.98491 2.80778C8.98493 2.7021 8.89914 2.61633 8.79346 2.61633Z" fill="white"/>
<path d="M7.54651 2.61633H4.15141C4.04573 2.61633 3.95996 2.7021 3.95996 2.80778C3.95996 2.91371 4.04573 2.99922 4.15141 2.99922H7.54654C7.65221 2.99922 7.73798 2.91371 7.73798 2.80778C7.73798 2.7021 7.65221 2.61633 7.54651 2.61633Z" fill="white"/>
<path d="M4.75997 3.56665H4.15141C4.04573 3.56665 3.95996 3.65242 3.95996 3.7581C3.95996 3.86377 4.04573 3.94954 4.15141 3.94954H4.75997C4.86564 3.94954 4.95141 3.86377 4.95141 3.7581C4.95141 3.65242 4.86564 3.56665 4.75997 3.56665Z" fill="white"/>
<path d="M8.7939 3.56665H5.52641C5.42073 3.56665 5.33496 3.65242 5.33496 3.7581C5.33496 3.86377 5.42073 3.94954 5.52641 3.94954H8.7939C8.89958 3.94954 8.98535 3.86377 8.98535 3.7581C8.98537 3.65242 8.89958 3.56665 8.7939 3.56665Z" fill="white"/>
<path d="M2.33659 10.795C2.33659 10.7469 2.35432 10.7331 2.3709 10.7239C2.42234 10.6954 2.54035 10.6871 2.64847 10.7427C2.67718 10.7574 2.70973 10.7742 2.75209 10.7742C2.94092 10.7742 3.09026 10.4233 2.6392 10.3457V10.3337C2.6392 10.2267 2.55216 10.1396 2.44519 10.1396C2.33822 10.1396 2.25118 10.2267 2.25118 10.3337V10.3705C2.06217 10.439 1.95525 10.5949 1.95525 10.8065C1.95525 11.133 2.19248 11.2222 2.36574 11.2872C2.53096 11.3493 2.58809 11.3765 2.58809 11.4889C2.58809 11.5591 2.56917 11.6241 2.43183 11.6241C2.23171 11.6241 2.25567 11.466 2.10589 11.466C2.00004 11.466 1.9209 11.5706 1.9209 11.6643C1.9209 11.7969 2.05882 11.9228 2.25118 11.9738V11.9883C2.25118 12.0953 2.33822 12.1824 2.44519 12.1824C2.55216 12.1824 2.6392 12.0953 2.6392 11.9883V11.9687C2.84735 11.9018 2.96946 11.7226 2.96946 11.4774C2.96946 10.8957 2.33659 10.983 2.33659 10.795Z" fill="white"/>
</g>
<defs>
<clipPath id="clip0_8584_8716">
<rect width="13" height="13" fill="white" transform="translate(-0.00488281)"/>
</clipPath>
</defs>
</svg>
