<svg width="13" height="14" viewBox="0 0 13 14" fill="none" xmlns="http://www.w3.org/2000/svg">
<path d="M3.64844 2.13686C3.64844 2.06377 3.72421 2.02588 3.80276 2.02588H4.32516C4.60674 2.02588 4.86927 2.11792 4.86927 2.50225C4.86927 2.72422 4.78268 2.87041 4.63917 2.9327C4.80431 2.99767 4.91797 3.1032 4.91797 3.37396V3.43079C4.91797 3.85301 4.68251 4.00466 4.37653 4.00466H3.80267C3.70795 4.00466 3.64844 3.95329 3.64844 3.89635V2.13686ZM3.99766 2.79464H4.30076C4.44695 2.79464 4.51737 2.69992 4.51737 2.56186C4.51737 2.42102 4.43614 2.33443 4.29808 2.33443H3.99756V2.79464H3.99766ZM4.30354 3.69601C4.46857 3.69601 4.56607 3.60674 4.56607 3.40104V3.3577C4.56607 3.14654 4.46857 3.07076 4.30354 3.07076H3.99766V3.69601H4.30354Z" fill="white"/>
<path d="M5.16895 2.13409C5.16895 2.05831 5.25553 2.02588 5.34489 2.02588C5.43148 2.02588 5.52084 2.05831 5.52084 2.13409V3.89368C5.52084 3.96677 5.43148 4.00466 5.34489 4.00466C5.25553 4.00466 5.16895 3.96677 5.16895 3.89368V2.13409Z" fill="white"/>
<path d="M5.99993 4.00466C5.92148 4.00466 5.8457 3.96677 5.8457 3.89368V2.13409C5.8457 2.05831 5.93229 2.02588 6.02165 2.02588C6.10824 2.02588 6.1976 2.05831 6.1976 2.13409V3.69611H6.85806C6.92847 3.69611 6.96368 3.77188 6.96368 3.85033C6.96368 3.92611 6.92847 4.00466 6.85806 4.00466H5.99993Z" fill="white"/>
<path d="M7.31058 4.00466C7.23203 4.00466 7.15625 3.96677 7.15625 3.89368V2.13409C7.15625 2.05831 7.24294 2.02588 7.3322 2.02588C7.41888 2.02588 7.50815 2.05831 7.50815 2.13409V3.69611H8.1687C8.23902 3.69611 8.27423 3.77188 8.27423 3.85033C8.27423 3.92611 8.23902 4.00466 8.1687 4.00466H7.31058Z" fill="white"/>
<path d="M10.0309 4.00206C9.7034 3.99393 9.45703 3.81798 9.45703 3.66633C9.45703 3.59055 9.52477 3.47679 9.60858 3.47679C9.71143 3.47679 9.79266 3.65284 10.0309 3.67982V3.14116C9.78453 3.04912 9.50573 2.94359 9.50573 2.59705C9.50573 2.25328 9.76023 2.10441 10.0309 2.0692V1.99342C10.0309 1.95821 10.0715 1.92578 10.1229 1.92578C10.169 1.92578 10.215 1.95821 10.215 1.99342V2.06384C10.3909 2.0692 10.6779 2.12057 10.6779 2.27768C10.6779 2.33987 10.6346 2.46444 10.5344 2.46444C10.4587 2.46444 10.3964 2.37775 10.215 2.36427V2.84074C10.4559 2.93 10.7267 3.0519 10.7267 3.41996C10.7267 3.75291 10.5182 3.94513 10.215 3.99383V4.07784C10.215 4.11304 10.169 4.14548 10.1229 4.14548C10.0715 4.14548 10.0309 4.11304 10.0309 4.07784V4.00206ZM10.0525 2.78113V2.3724C9.91724 2.39412 9.83601 2.45908 9.83601 2.56194C9.83601 2.68105 9.92805 2.73243 10.0525 2.78113ZM10.1933 3.20612V3.67724C10.3124 3.65284 10.3963 3.58242 10.3963 3.45527C10.3964 3.32256 10.3097 3.2576 10.1933 3.20612Z" fill="white"/>
<path d="M8.52235 6.06348H3.61621C3.51108 6.06348 3.42578 6.14867 3.42578 6.25391C3.42578 6.35914 3.51108 6.44434 3.61621 6.44434H8.52235C8.62759 6.44434 8.71278 6.35914 8.71278 6.25391C8.71278 6.14867 8.62759 6.06348 8.52235 6.06348Z" fill="white"/>
<path d="M8.52235 7.64771H3.61621C3.51108 7.64771 3.42578 7.7329 3.42578 7.83813C3.42578 7.94327 3.51108 8.02856 3.61621 8.02856H8.52235C8.62759 8.02856 8.71278 7.94327 8.71278 7.83813C8.71278 7.7329 8.62759 7.64771 8.52235 7.64771Z" fill="white"/>
<path d="M8.52235 9.23193H3.61621C3.51108 9.23193 3.42578 9.31723 3.42578 9.42236C3.42578 9.5276 3.51108 9.61279 3.61621 9.61279H8.52235C8.62759 9.61279 8.71278 9.5276 8.71278 9.42236C8.71278 9.31723 8.62759 9.23193 8.52235 9.23193Z" fill="white"/>
<path d="M8.52235 10.8162H3.61621C3.51108 10.8162 3.42578 10.9014 3.42578 11.0066C3.42578 11.1118 3.51108 11.197 3.61621 11.197H8.52235C8.62759 11.197 8.71278 11.1118 8.71278 11.0066C8.71278 10.9014 8.62759 10.8162 8.52235 10.8162Z" fill="white"/>
<path d="M10.6582 6.06348H9.42383C9.3187 6.06348 9.2334 6.14867 9.2334 6.25391C9.2334 6.35914 9.3187 6.44434 9.42383 6.44434H10.6582C10.7634 6.44434 10.8487 6.35914 10.8487 6.25391C10.8487 6.14867 10.7634 6.06348 10.6582 6.06348Z" fill="white"/>
<path d="M10.6582 7.64771H9.42383C9.3187 7.64771 9.2334 7.7329 9.2334 7.83813C9.2334 7.94327 9.3187 8.02856 9.42383 8.02856H10.6582C10.7634 8.02856 10.8487 7.94327 10.8487 7.83813C10.8487 7.7329 10.7634 7.64771 10.6582 7.64771Z" fill="white"/>
<path d="M10.6582 9.23193H9.42383C9.3187 9.23193 9.2334 9.31723 9.2334 9.42236C9.2334 9.5276 9.3187 9.61279 9.42383 9.61279H10.6582C10.7634 9.61279 10.8487 9.5276 10.8487 9.42236C10.8487 9.31723 10.7634 9.23193 10.6582 9.23193Z" fill="white"/>
<path d="M11.1623 0.5H1.80473C1.25387 0.5 0.805664 0.948204 0.805664 1.49906V9.76778C0.805664 10.218 1.17184 10.5841 1.62213 10.5841H1.71873C1.82387 10.5841 1.90916 10.4989 1.90916 10.3937C1.90916 10.2886 1.82387 10.2033 1.71873 10.2033H1.62213C1.38191 10.2033 1.18652 10.0079 1.18652 9.76778V1.49906C1.18652 1.15817 1.46384 0.880859 1.80473 0.880859C2.14561 0.880859 2.42293 1.15817 2.42293 1.49906V12.9394C2.42293 13.1169 2.54343 13.2697 2.71611 13.311L3.46365 13.4896C3.52177 13.5035 3.58316 13.5034 3.64118 13.4896L4.49187 13.2865L5.34186 13.4896C5.39988 13.5035 5.46127 13.5034 5.51939 13.4896L6.36988 13.2865L7.21997 13.4896C7.27809 13.5035 7.33949 13.5034 7.39761 13.4896L8.24819 13.2865L9.09838 13.4896C9.1565 13.5035 9.2178 13.5034 9.27592 13.4896L10.1266 13.2865L10.9767 13.4895C11.0058 13.4965 11.0357 13.5 11.0657 13.5C11.0955 13.5 11.1254 13.4965 11.1544 13.4896L11.9022 13.311C12.0748 13.2697 12.1953 13.1169 12.1953 12.9394V1.53308C12.1953 0.963478 11.7319 0.5 11.1623 0.5ZM11.8136 12.9405L11.0654 13.1191L10.2151 12.916C10.157 12.9021 10.0956 12.9021 10.0375 12.916L9.18685 13.1191L8.33666 12.916C8.27864 12.9021 8.21725 12.9021 8.15913 12.916L7.30854 13.1191L6.45835 12.916C6.40023 12.9021 6.33884 12.9021 6.28082 12.916L5.43033 13.1191L4.58034 12.916C4.55128 12.9091 4.52142 12.9056 4.49157 12.9056C4.46172 12.9056 4.43186 12.9091 4.4028 12.916L3.55222 13.1191L2.80379 12.9394V1.49906C2.80379 1.48299 2.80329 1.46712 2.8025 1.45126C2.8023 1.4461 2.8019 1.44094 2.80151 1.43578C2.80091 1.42507 2.80012 1.41446 2.79913 1.40375C2.79853 1.3979 2.79784 1.39204 2.79714 1.38609C2.79605 1.37627 2.79486 1.36636 2.79347 1.35664C2.79258 1.35069 2.79169 1.34473 2.7907 1.33888C2.78911 1.32896 2.78732 1.31915 2.78544 1.30923C2.78435 1.30377 2.78336 1.29832 2.78226 1.29286C2.77988 1.28156 2.77721 1.27045 2.77453 1.25934C2.77354 1.25547 2.77274 1.2516 2.77175 1.24783C2.76788 1.23306 2.76372 1.21838 2.75925 1.2039C2.75806 1.20023 2.75677 1.19666 2.75558 1.19299C2.75211 1.18217 2.74844 1.17126 2.74467 1.16055C2.74279 1.1554 2.74071 1.15024 2.73872 1.14508C2.73535 1.13605 2.73178 1.12693 2.72811 1.118C2.72583 1.11255 2.72345 1.10709 2.72117 1.10174C2.7174 1.09301 2.71343 1.08448 2.70947 1.07595C2.70699 1.07069 2.70451 1.06544 2.70193 1.06018C2.69756 1.05125 2.6929 1.04233 2.68824 1.0335C2.68586 1.02904 2.68358 1.02448 2.6812 1.02011C2.67445 1.00781 2.66741 0.995613 2.66017 0.983711C2.65968 0.982819 2.65928 0.982025 2.65878 0.981133C2.65105 0.968437 2.64291 0.95594 2.63468 0.943642C2.6319 0.939575 2.62913 0.935608 2.62635 0.931641C2.6205 0.923309 2.61465 0.914978 2.6087 0.906845C2.60532 0.902382 2.60195 0.897919 2.59848 0.893456C2.59531 0.88929 2.59223 0.885025 2.58896 0.880859H11.1623C11.5219 0.880859 11.8145 1.17345 11.8145 1.53318L11.8136 12.9405Z" fill="white"/>
</svg>
