<svg width="36" height="35" viewBox="0 0 36 35" fill="none" xmlns="http://www.w3.org/2000/svg">
<path d="M8.68359 25.9678H13.0743V35H8.68359V25.9678Z" fill="#4A5E73"/>
<path d="M21.8555 25.9678H26.2462V35H21.8555V25.9678Z" fill="#4A5E73"/>
<path d="M13.0742 21.4515V34.9999H21.8556V21.4515C21.8556 21.3018 21.7978 21.1582 21.6948 21.0523C21.5919 20.9464 21.4523 20.887 21.3067 20.887H13.6231C13.4775 20.887 13.3379 20.9464 13.235 21.0523C13.132 21.1582 13.0742 21.3018 13.0742 21.4515Z" fill="#415466"/>
<path d="M15.8184 32.1775H19.1114V35.0001H15.8184V32.1775Z" fill="#ADD8E6"/>
<path d="M7.03719 12.9838C10.3714 12.9838 13.0744 11.7201 13.0744 10.1612C13.0744 8.60234 10.3714 7.33862 7.03719 7.33862C3.70294 7.33862 1 8.60234 1 10.1612C1 11.7201 3.70294 12.9838 7.03719 12.9838Z" fill="#71ABE3"/>
<path d="M10.3302 10.1613H3.74414V0.564516C3.74414 0.414797 3.80196 0.27121 3.90489 0.165343C4.00782 0.0594756 4.14742 0 4.29298 0H9.78133C9.92689 0 10.0665 0.0594756 10.1694 0.165343C10.2723 0.27121 10.3302 0.414797 10.3302 0.564516V10.1613Z" fill="#4A5E73"/>
<path d="M5.93945 7.90332H8.13479V10.1614H5.93945V7.90332Z" fill="#ADD8E6"/>
<path d="M14.7188 24.8386H15.8164V25.9677H14.7188V24.8386Z" fill="#ADD8E6"/>
<path d="M19.1113 24.8386H20.209V25.9677H19.1113V24.8386Z" fill="#ADD8E6"/>
<path d="M16.916 24.8386H18.0137V25.9677H16.916V24.8386Z" fill="#ADD8E6"/>
<path d="M14.7188 22.5808H15.8164V23.7098H14.7188V22.5808Z" fill="#ADD8E6"/>
<path d="M19.1113 22.5808H20.209V23.7098H19.1113V22.5808Z" fill="#ADD8E6"/>
<path d="M16.916 22.5808H18.0137V23.7098H16.916V22.5808Z" fill="#ADD8E6"/>
<path d="M16.916 27.0969H18.0137V28.226H16.916V27.0969Z" fill="#ADD8E6"/>
<path d="M16.916 29.355H18.0137V30.484H16.916V29.355Z" fill="#ADD8E6"/>
<path d="M14.7188 27.0969H15.8164V28.226H14.7188V27.0969Z" fill="#ADD8E6"/>
<path d="M19.1113 27.0969H20.209V28.226H19.1113V27.0969Z" fill="#ADD8E6"/>
<path d="M14.7188 29.355H15.8164V30.484H14.7188V29.355Z" fill="#ADD8E6"/>
<path d="M19.1113 29.355H20.209V30.484H19.1113V29.355Z" fill="#ADD8E6"/>
<path d="M23.502 27.6614H24.5996V28.7904H23.502V27.6614Z" fill="#ADD8E6"/>
<path d="M23.502 29.9194H24.5996V31.0485H23.502V29.9194Z" fill="#ADD8E6"/>
<path d="M23.502 32.1775H24.5996V33.3065H23.502V32.1775Z" fill="#ADD8E6"/>
<path d="M10.332 27.6614H11.4297V28.7904H10.332V27.6614Z" fill="#ADD8E6"/>
<path d="M10.332 29.9194H11.4297V31.0485H10.332V29.9194Z" fill="#ADD8E6"/>
<path d="M10.332 32.1775H11.4297V33.3065H10.332V32.1775Z" fill="#ADD8E6"/>
<path d="M4.8418 1.12915H5.93947V2.25818H4.8418V1.12915Z" fill="#ADD8E6"/>
<path d="M6.48828 1.12915H7.58595V2.25818H6.48828V1.12915Z" fill="#ADD8E6"/>
<path d="M8.13672 1.12915H9.23439V2.25818H8.13672V1.12915Z" fill="#ADD8E6"/>
<path d="M4.8418 3.38721H5.93947V4.51624H4.8418V3.38721Z" fill="#ADD8E6"/>
<path d="M6.48828 3.38721H7.58595V4.51624H6.48828V3.38721Z" fill="#ADD8E6"/>
<path d="M8.13672 3.38721H9.23439V4.51624H8.13672V3.38721Z" fill="#ADD8E6"/>
<path d="M4.8418 5.64526H5.93947V6.7743H4.8418V5.64526Z" fill="#ADD8E6"/>
<path d="M6.48828 5.64526H7.58595V6.7743H6.48828V5.64526Z" fill="#ADD8E6"/>
<path d="M8.13672 5.64526H9.23439V6.7743H8.13672V5.64526Z" fill="#ADD8E6"/>
<path d="M27.8927 12.9838C31.2269 12.9838 33.9298 11.7201 33.9298 10.1612C33.9298 8.60234 31.2269 7.33862 27.8927 7.33862C24.5584 7.33862 21.8555 8.60234 21.8555 10.1612C21.8555 11.7201 24.5584 12.9838 27.8927 12.9838Z" fill="#71ABE3"/>
<path d="M31.1856 10.1613H24.5996V0.564516C24.5996 0.414797 24.6574 0.27121 24.7604 0.165343C24.8633 0.0594756 25.0029 0 25.1484 0H30.6368C30.7824 0 30.922 0.0594756 31.0249 0.165343C31.1278 0.27121 31.1856 0.414797 31.1856 0.564516V10.1613Z" fill="#4A5E73"/>
<path d="M26.7949 7.90332H28.9903V10.1614H26.7949V7.90332Z" fill="#ADD8E6"/>
<path d="M25.6973 1.12891H26.7949V2.25794H25.6973V1.12891Z" fill="#ADD8E6"/>
<path d="M27.3457 1.12891H28.4434V2.25794H27.3457V1.12891Z" fill="#ADD8E6"/>
<path d="M28.9922 1.12891H30.0899V2.25794H28.9922V1.12891Z" fill="#ADD8E6"/>
<path d="M25.6973 3.38696H26.7949V4.516H25.6973V3.38696Z" fill="#ADD8E6"/>
<path d="M27.3457 3.38696H28.4434V4.516H27.3457V3.38696Z" fill="#ADD8E6"/>
<path d="M28.9922 3.38696H30.0899V4.516H28.9922V3.38696Z" fill="#ADD8E6"/>
<path d="M25.6973 5.64502H26.7949V6.77405H25.6973V5.64502Z" fill="#ADD8E6"/>
<path d="M27.3457 5.64502H28.4434V6.77405H27.3457V5.64502Z" fill="#ADD8E6"/>
<path d="M28.9922 5.64502H30.0899V6.77405H28.9922V5.64502Z" fill="#ADD8E6"/>
<path d="M10.4629 15.2354L11.296 14.5004L14.5903 18.4508L13.7571 19.1858L10.4629 15.2354Z" fill="#5B80A6"/>
<path d="M20.3398 18.4663L23.6341 14.5158L24.4672 15.2508L21.173 19.2013L20.3398 18.4663Z" fill="#5B80A6"/>
</svg>
