<svg width="36" height="35" viewBox="0 0 36 35" fill="none" xmlns="http://www.w3.org/2000/svg">
<g clip-path="url(#clip0_4489_20815)">
<path d="M0.0625 13.1249L16.915 23.8503C17.1075 23.9924 17.335 24.0624 17.5625 24.0624C17.79 24.0624 18.0175 23.9924 18.21 23.8503L35.0625 13.1249L18.2188 0.218691C17.8294 -0.0722461 17.2956 -0.0722461 16.9062 0.218691L0.0625 13.1249Z" fill="#64B5F6"/>
<path d="M28.5 0H6.625C5.41969 0 4.4375 0.982188 4.4375 2.1875V26.25C4.4375 26.8538 4.9275 27.3438 5.53125 27.3438H29.5938C30.1975 27.3438 30.6875 26.8538 30.6875 26.25V2.1875C30.6875 0.982188 29.7075 0 28.5 0Z" fill="#ECEFF1"/>
<path d="M9.90625 6.5625H25.2188C25.8225 6.5625 26.3125 6.0725 26.3125 5.46875C26.3125 4.865 25.8225 4.375 25.2188 4.375H9.90625C9.3025 4.375 8.8125 4.865 8.8125 5.46875C8.8125 6.0725 9.3025 6.5625 9.90625 6.5625Z" fill="#90A4AE"/>
<path d="M25.2188 8.75H9.90625C9.3025 8.75 8.8125 9.24 8.8125 9.84375C8.8125 10.4475 9.3025 10.9375 9.90625 10.9375H25.2188C25.8225 10.9375 26.3125 10.4475 26.3125 9.84375C26.3125 9.24 25.8225 8.75 25.2188 8.75Z" fill="#90A4AE"/>
<path d="M18.6562 13.125H9.90625C9.3025 13.125 8.8125 13.615 8.8125 14.2188C8.8125 14.8225 9.3025 15.3125 9.90625 15.3125H18.6562C19.26 15.3125 19.75 14.8225 19.75 14.2188C19.75 13.615 19.26 13.125 18.6562 13.125Z" fill="#90A4AE"/>
<path d="M18.21 23.8503C18.0175 23.9925 17.79 24.0625 17.5625 24.0625C17.335 24.0625 17.1075 23.9925 16.915 23.8503L0.0625 13.125V32.8125C0.0625 34.02 1.0425 35 2.25 35H32.875C34.0825 35 35.0625 34.02 35.0625 32.8125V13.125L18.21 23.8503Z" fill="#1E88E5"/>
<path d="M32.875 35H2.25C1.02281 35 0.0625 34.0397 0.0625 32.8125C0.0625 32.4647 0.22875 32.1366 0.50875 31.9309L16.915 20.9934C17.1075 20.8513 17.335 20.7812 17.5625 20.7812C17.79 20.7812 18.0175 20.8513 18.21 20.9934L34.6162 31.9309C34.8962 32.1366 35.0625 32.4647 35.0625 32.8125C35.0625 34.0397 34.1022 35 32.875 35Z" fill="#2196F3"/>
</g>
<defs>
<clipPath id="clip0_4489_20815">
<rect width="35" height="35" fill="white" transform="translate(0.0625)"/>
</clipPath>
</defs>
</svg>
