<svg width="36" height="35" viewBox="0 0 36 35" fill="none" xmlns="http://www.w3.org/2000/svg">
<g clip-path="url(#clip0_4489_20809)">
<path d="M31.1875 0H4.9375C2.52469 0 0.5625 1.96219 0.5625 4.375V30.625C0.5625 33.0378 2.52469 35 4.9375 35H31.1875C33.6003 35 35.5625 33.0378 35.5625 30.625V4.375C35.5625 1.96219 33.6003 0 31.1875 0Z" fill="#1976D2"/>
<path d="M30.0938 17.5H24.625V13.125C24.625 11.9175 25.605 12.0312 26.8125 12.0312H29V6.5625H24.625C21.0003 6.5625 18.0625 9.50031 18.0625 13.125V17.5H13.6875V22.9688H18.0625V35H24.625V22.9688H27.9062L30.0938 17.5Z" fill="#FAFAFA"/>
</g>
<defs>
<clipPath id="clip0_4489_20809">
<rect width="35" height="35" fill="white" transform="translate(0.5625)"/>
</clipPath>
</defs>
</svg>
