<svg width="42" height="35" viewBox="0 0 42 35" fill="none" xmlns="http://www.w3.org/2000/svg">
<path d="M7.12891 31.3865H12.7311V33.5993C12.7311 33.9708 12.5836 34.327 12.3209 34.5897C12.0582 34.8523 11.702 34.9999 11.3306 34.9999H8.52946C8.15801 34.9999 7.80177 34.8523 7.53912 34.5897C7.27646 34.327 7.12891 33.9708 7.12891 33.5993V31.3865Z" fill="#802F34"/>
<path d="M28.1367 31.3865H33.7389V33.5993C33.7389 33.9708 33.5914 34.327 33.3287 34.5897C33.0661 34.8523 32.7098 34.9999 32.3384 34.9999H29.5373C29.1658 34.9999 28.8096 34.8523 28.5469 34.5897C28.2843 34.327 28.1367 33.9708 28.1367 33.5993V31.3865Z" fill="#802F34"/>
<path d="M12.0293 15.3501V11.8908C12.0304 11.5197 12.1783 11.1641 12.4407 10.9017C12.7031 10.6393 13.0587 10.4913 13.4298 10.4902C13.8004 10.493 14.1551 10.6414 14.4171 10.9035C14.6792 11.1655 14.8277 11.5202 14.8304 11.8908V13.9706L12.0293 15.3501Z" fill="#802F34"/>
<path d="M26.0371 13.9706V11.8908C26.0382 11.5197 26.1861 11.1641 26.4485 10.9017C26.711 10.6393 27.0666 10.4913 27.4377 10.4902C27.8083 10.493 28.1629 10.6414 28.425 10.9035C28.687 11.1655 28.8355 11.5202 28.8382 11.8908V15.3501L26.0371 13.9706Z" fill="#802F34"/>
<path d="M40.741 10.154C40.741 11.9957 39.4665 14.4607 37.5337 15.294C37.3305 15.3797 37.1085 15.4111 36.8895 15.3851C34.8931 15.1165 33.0479 14.1754 31.6584 12.717C31.4439 12.4952 31.309 12.2086 31.2748 11.9019C31.2406 11.5953 31.309 11.2859 31.4693 11.0223L31.7845 10.4971L32.4987 9.29966C30.4259 8.22824 26.3503 7.00275 20.433 7.00275C14.5157 7.00275 10.4401 8.22824 8.36724 9.29966L9.08152 10.4971L9.39665 11.0223C9.55699 11.2859 9.62541 11.5953 9.5912 11.9019C9.55698 12.2086 9.42207 12.4952 9.20757 12.717C7.81808 14.1754 5.9729 15.1165 3.97652 15.3851C3.7575 15.4111 3.53548 15.3797 3.33226 15.294C1.3995 14.4607 0.125 11.9957 0.125 10.154C0.125 3.17925 10.6501 0 20.433 0C30.2158 0 40.741 3.17925 40.741 10.154Z" fill="#E64C3C"/>
<path d="M2.92684 10.8545C2.74111 10.8545 2.563 10.7807 2.43167 10.6494C2.30034 10.5181 2.22656 10.3399 2.22656 10.1542C2.24005 9.09443 2.62293 8.07258 3.30919 7.26488C3.36595 7.19085 3.43693 7.12892 3.51797 7.0827C3.599 7.03649 3.68845 7.00693 3.78106 6.99576C3.87367 6.98459 3.96758 6.99204 4.05728 7.01767C4.14697 7.0433 4.23064 7.08659 4.30338 7.145C4.37611 7.20341 4.43644 7.27576 4.48083 7.35781C4.52521 7.43986 4.55275 7.52995 4.56184 7.62279C4.57093 7.71563 4.56137 7.80935 4.53374 7.89845C4.5061 7.98754 4.46095 8.07022 4.40092 8.14163C3.91713 8.7023 3.64355 9.41386 3.62711 10.1542C3.62711 10.3399 3.55333 10.5181 3.42201 10.6494C3.29068 10.7807 3.11256 10.8545 2.92684 10.8545Z" fill="#FB7B76"/>
<path d="M6.42973 6.37547C6.27403 6.37567 6.1227 6.32399 5.99966 6.22857C5.87662 6.13315 5.78888 5.99945 5.75033 5.8486C5.71177 5.69775 5.72459 5.53835 5.78675 5.39559C5.84892 5.25284 5.95689 5.13488 6.0936 5.06035C8.12149 4.02222 10.2896 3.28458 12.5298 2.87059C12.7119 2.83344 12.9013 2.87016 13.0564 2.97266C13.2114 3.07516 13.3194 3.23505 13.3565 3.41715C13.3937 3.59925 13.3569 3.78865 13.2544 3.94369C13.1519 4.09872 12.992 4.20668 12.8099 4.24383C10.7065 4.62859 8.67023 5.31741 6.76516 6.28863C6.66246 6.34539 6.54707 6.37526 6.42973 6.37547Z" fill="#FB7B76"/>
<path d="M9.08427 10.4973C9.06925 10.5156 9.05003 10.53 9.02825 10.5393C8.56295 10.7393 8.14352 11.0324 7.79576 11.4006C7.68929 11.5519 7.52793 11.6556 7.3461 11.6896C7.16426 11.7236 6.97633 11.6853 6.82238 11.5827C6.66952 11.4756 6.56529 11.3124 6.53248 11.1286C6.49967 10.9449 6.54096 10.7557 6.64731 10.6023C7.11769 10.0456 7.70617 9.60067 8.36999 9.2998L9.08427 10.4973Z" fill="#802F34"/>
<path d="M34.049 11.5827C33.895 11.6853 33.7071 11.7236 33.5253 11.6896C33.3434 11.6556 33.1821 11.5519 33.0756 11.4006C32.7279 11.0324 32.3084 10.7393 31.8431 10.5393C31.8213 10.53 31.8021 10.5156 31.7871 10.4973L32.5014 9.2998C33.1652 9.60067 33.7537 10.0456 34.2241 10.6023C34.3304 10.7557 34.3717 10.9449 34.3389 11.1286C34.3061 11.3124 34.2019 11.4756 34.049 11.5827Z" fill="#802F34"/>
<path d="M6.7627 32.1988C6.24331 32.1969 5.73079 32.0798 5.26205 31.8561C4.7933 31.6324 4.37998 31.3075 4.05183 30.9049C3.72369 30.5023 3.48888 30.0319 3.3643 29.5277C3.23971 29.0234 3.22846 28.4978 3.33136 27.9887C5.04983 19.1828 12.0533 12.5911 20.4321 12.5911C28.8109 12.5911 35.8143 19.1828 37.5342 27.9887C37.6371 28.4979 37.6258 29.0237 37.5012 29.528C37.3765 30.0323 37.1416 30.5028 36.8133 30.9054C36.485 31.3081 36.0715 31.6329 35.6026 31.8565C35.1337 32.0802 34.621 32.1971 34.1015 32.1988H6.7627Z" fill="#E64C3C"/>
<path d="M20.4363 29.3976C24.3039 29.3976 27.4391 26.2624 27.4391 22.3948C27.4391 18.5273 24.3039 15.3921 20.4363 15.3921C16.5688 15.3921 13.4336 18.5273 13.4336 22.3948C13.4336 26.2624 16.5688 29.3976 20.4363 29.3976Z" fill="white"/>
<path d="M20.4341 26.5964C22.7546 26.5964 24.6357 24.7153 24.6357 22.3948C24.6357 20.0743 22.7546 18.1931 20.4341 18.1931C18.1136 18.1931 16.2324 20.0743 16.2324 22.3948C16.2324 24.7153 18.1136 26.5964 20.4341 26.5964Z" fill="#FB7B76"/>
</svg>
