<svg width="16" height="15" viewBox="0 0 16 15" fill="none" xmlns="http://www.w3.org/2000/svg">
<path fill-rule="evenodd" clip-rule="evenodd" d="M7.41161 0C10.3638 0 12.7607 2.40054 12.7607 5.35714C12.7607 6.93964 11.9669 8.80018 10.9918 10.455C9.57746 12.8555 7.80905 14.8227 7.80905 14.8227C7.70795 14.9357 7.56299 15 7.41161 15C7.26023 15 7.11526 14.9357 7.01416 14.8227C7.01416 14.8227 5.24576 12.8555 3.83145 10.455C2.85631 8.80018 2.0625 6.93964 2.0625 5.35714C2.0625 2.40054 4.45943 0 7.41161 0ZM7.41161 2.14286C5.64052 2.14286 4.20214 3.58339 4.20214 5.35714C4.20214 7.13089 5.64052 8.57143 7.41161 8.57143C9.1827 8.57143 10.6211 7.13089 10.6211 5.35714C10.6211 3.58339 9.1827 2.14286 7.41161 2.14286Z" fill="#0DADF5"/>
<path d="M7.41308 7.50007C8.59477 7.50007 9.55272 6.54068 9.55272 5.35721C9.55272 4.17375 8.59477 3.21436 7.41308 3.21436C6.23139 3.21436 5.27344 4.17375 5.27344 5.35721C5.27344 6.54068 6.23139 7.50007 7.41308 7.50007Z" fill="#1F397B"/>
</svg>
