<svg width="42" height="35" viewBox="0 0 42 35" fill="none" xmlns="http://www.w3.org/2000/svg">
<path d="M17.0656 0H3.55139C1.72808 0 0.25 1.47808 0.25 3.30139V31.6986C0.25 33.5219 1.72808 35 3.55139 35H17.0656C18.8889 35 20.3669 33.5219 20.3669 31.6986V3.30139C20.3669 1.47808 18.8889 0 17.0656 0Z" fill="#43567C"/>
<path d="M18.6678 4.35548V29.4444C18.6681 29.5186 18.6536 29.5922 18.6254 29.6608C18.5972 29.7295 18.5557 29.7919 18.5033 29.8446C18.451 29.8972 18.3887 29.939 18.3202 29.9676C18.2517 29.9961 18.1782 30.0109 18.104 30.011H2.51506C2.44082 30.0109 2.36733 29.9961 2.2988 29.9676C2.23027 29.939 2.16804 29.8972 2.11568 29.8446C2.06331 29.7919 2.02182 29.7295 1.9936 29.6608C1.96537 29.5922 1.95096 29.5186 1.95117 29.4444V4.35548C1.95096 4.28124 1.96537 4.20768 1.9936 4.13901C2.02182 4.07034 2.06331 4.00791 2.11568 3.95528C2.16804 3.90266 2.23027 3.86087 2.2988 3.8323C2.36733 3.80374 2.44082 3.78896 2.51506 3.78882H18.104C18.1782 3.78896 18.2517 3.80374 18.3202 3.8323C18.3887 3.86087 18.451 3.90266 18.5033 3.95528C18.5557 4.00791 18.5972 4.07034 18.6254 4.13901C18.6536 4.20768 18.6681 4.28124 18.6678 4.35548Z" fill="#8CC0F3"/>
<path d="M12.6442 2.10316H7.97895C7.90528 2.10316 7.83462 2.0739 7.78253 2.0218C7.73044 1.96971 7.70117 1.89906 7.70117 1.82539C7.70117 1.75171 7.73044 1.68106 7.78253 1.62897C7.83462 1.57687 7.90528 1.54761 7.97895 1.54761H12.6442C12.7179 1.54761 12.7886 1.57687 12.8406 1.62897C12.8927 1.68106 12.922 1.75171 12.922 1.82539C12.922 1.89906 12.8927 1.96971 12.8406 2.0218C12.7886 2.0739 12.7179 2.10316 12.6442 2.10316Z" fill="#2F3A5A"/>
<path d="M12.1009 31.5034H8.51561C8.37539 31.5034 8.26172 31.6171 8.26172 31.7573V33.1331C8.26172 33.2734 8.37539 33.387 8.51561 33.387H12.1009C12.2411 33.387 12.3548 33.2734 12.3548 33.1331V31.7573C12.3548 31.6171 12.2411 31.5034 12.1009 31.5034Z" fill="#2F3A5A"/>
<g opacity="0.5">
<path d="M17.1326 3.78882L1.94922 29.1916V25.2249L14.7603 3.78882H17.1326Z" fill="#E1E6E9"/>
<path d="M18.6651 5.00537V6.98593L4.90404 30.0109H3.7207L18.6651 5.00537Z" fill="#E1E6E9"/>
</g>
</svg>
