<svg width="16" height="15" viewBox="0 0 16 15" fill="none" xmlns="http://www.w3.org/2000/svg">
<path d="M11.2144 15H3.58985C3.29861 15 3.0625 14.7639 3.0625 14.4727V0.527348C3.0625 0.236105 3.29861 0 3.58985 0H11.2144C11.5057 0 11.7418 0.236105 11.7418 0.527348V14.4727C11.7418 14.7639 11.5057 15 11.2144 15Z" fill="#695E66"/>
<path d="M11.2143 0H10.6177V13.3484C10.6177 13.6397 10.3815 13.8759 10.0902 13.8759H3.0625V14.4725C3.0625 14.7638 3.29866 15 3.58996 15H11.2143C11.5056 15 11.7417 14.7638 11.7417 14.4725V0.527465C11.7418 0.236164 11.5056 0 11.2143 0Z" fill="#453E43"/>
<path d="M10.5554 12.3378H4.20703C4.0776 12.3378 3.97266 12.2329 3.97266 12.1034V1.8252C3.97266 1.69576 4.0776 1.59082 4.20703 1.59082H10.5554C10.6849 1.59082 10.7898 1.69576 10.7898 1.8252V12.1035C10.7898 12.2329 10.6849 12.3378 10.5554 12.3378Z" fill="#62D8F9"/>
<path d="M10.5554 1.59082H10.1526V11.4662C10.1526 11.5957 10.0477 11.7007 9.91821 11.7007H3.97266V12.1034C3.97266 12.2329 4.07763 12.3378 4.20709 12.3378H10.5554C10.6848 12.3378 10.7898 12.2329 10.7898 12.1034V1.82526C10.7898 1.69576 10.6848 1.59082 10.5554 1.59082Z" fill="#00BEF7"/>
<path d="M7.40079 14.0672C7.63293 14.0672 7.82111 13.879 7.82111 13.6469C7.82111 13.4147 7.63293 13.2266 7.40079 13.2266C7.16865 13.2266 6.98047 13.4147 6.98047 13.6469C6.98047 13.879 7.16865 14.0672 7.40079 14.0672Z" fill="#453E43"/>
<path d="M6.34239 4.55405H5.11986C5.017 4.55405 4.93359 4.47064 4.93359 4.36778V3.14525C4.93359 3.04239 5.017 2.95898 5.11986 2.95898H6.34239C6.44525 2.95898 6.52866 3.04239 6.52866 3.14525V4.36778C6.52866 4.47067 6.44528 4.55405 6.34239 4.55405Z" fill="#FCE25C"/>
<path d="M8.61192 7.18049H7.38939C7.28653 7.18049 7.20312 7.09708 7.20312 6.99422V5.77172C7.20312 5.66886 7.28653 5.58545 7.38939 5.58545H8.61192C8.71479 5.58545 8.79819 5.66886 8.79819 5.77172V6.99425C8.79819 7.09711 8.71481 7.18049 8.61192 7.18049Z" fill="#F1FAFF"/>
<path d="M6.34239 7.18247H5.11986C5.017 7.18247 4.93359 7.09906 4.93359 6.9962V5.77367C4.93359 5.67081 5.017 5.5874 5.11986 5.5874H6.34239C6.44525 5.5874 6.52866 5.67081 6.52866 5.77367V6.9962C6.52866 7.09906 6.44528 7.18247 6.34239 7.18247Z" fill="#FB636F"/>
<path d="M8.00064 4.68928C8.4411 4.68928 8.79816 4.33222 8.79816 3.89176C8.79816 3.4513 8.4411 3.09424 8.00064 3.09424C7.56019 3.09424 7.20312 3.4513 7.20312 3.89176C7.20312 4.33222 7.56019 4.68928 8.00064 4.68928Z" fill="#FA989E"/>
<path d="M5.73111 9.77961C6.17157 9.77961 6.52863 9.42255 6.52863 8.98209C6.52863 8.54163 6.17157 8.18457 5.73111 8.18457C5.29066 8.18457 4.93359 8.54163 4.93359 8.98209C4.93359 9.42255 5.29066 9.77961 5.73111 9.77961Z" fill="#E0DDE2"/>
<path d="M7.8144 11.298H6.98932C6.86791 11.298 6.76953 11.1996 6.76953 11.0782C6.76953 10.9568 6.86791 10.8584 6.98932 10.8584H7.8144C7.93581 10.8584 8.03419 10.9568 8.03419 11.0782C8.03419 11.1996 7.93581 11.298 7.8144 11.298Z" fill="#F1FAFF"/>
<path d="M9.46284 11.2975H8.63775C8.51635 11.2975 8.41797 11.1991 8.41797 11.0777C8.41797 10.9563 8.51635 10.8579 8.63775 10.8579H9.46284C9.58425 10.8579 9.68263 10.9563 9.68263 11.0777C9.68263 11.1991 9.58422 11.2975 9.46284 11.2975Z" fill="#F1FAFF"/>
<path d="M6.14253 11.2975H5.31744C5.19604 11.2975 5.09766 11.1991 5.09766 11.0777C5.09766 10.9563 5.19604 10.8579 5.31744 10.8579H6.14253C6.26394 10.8579 6.36231 10.9563 6.36231 11.0777C6.36231 11.1991 6.26391 11.2975 6.14253 11.2975Z" fill="#F1FAFF"/>
</svg>
