<svg width="16" height="15" viewBox="0 0 16 15" fill="none" xmlns="http://www.w3.org/2000/svg">
<path d="M1.27148 2.66113H13.8521V14.7579H1.27148V2.66113Z" fill="#267B8F"/>
<path d="M7.56294 9.43552C7.19224 9.4219 6.83127 9.55583 6.55916 9.80794C6.28705 10.0601 6.126 10.4098 6.11133 10.7804V14.5162H9.01455V10.7804C8.99988 10.4098 8.83884 10.0601 8.56673 9.80794C8.29461 9.55583 7.93364 9.4219 7.56294 9.43552Z" fill="#CCC8C8"/>
<path d="M4.21542 9.07239L3.71195 8.0928L3.20848 9.07239H2.72461L3.48961 7.50102C3.5134 7.4636 3.54625 7.43279 3.58512 7.41144C3.62398 7.3901 3.66761 7.37891 3.71195 7.37891C3.75629 7.37891 3.79992 7.3901 3.83878 7.41144C3.87765 7.43279 3.9105 7.4636 3.93429 7.50102L4.66009 9.07239H4.21542Z" fill="#D9A257"/>
<path d="M3.6921 10.8871C4.36019 10.8871 4.90178 10.3455 4.90178 9.67745C4.90178 9.00936 4.36019 8.46777 3.6921 8.46777C3.02401 8.46777 2.48242 9.00936 2.48242 9.67745C2.48242 10.3455 3.02401 10.8871 3.6921 10.8871Z" fill="#FBF2D2"/>
<path d="M13.8522 2.41943H10.707V5.11653C10.7088 5.36518 10.8091 5.60297 10.986 5.77771C11.1629 5.95244 11.4019 6.04982 11.6506 6.04847H12.9086C13.0054 6.04847 13.1174 6.04363 13.2336 6.03226C13.2723 6.02839 13.3115 6.02403 13.3511 6.01871C13.4303 6.00806 13.5103 5.99451 13.589 5.97734C13.9816 5.89121 14.3361 5.71629 14.3361 5.39524L13.8522 2.41943Z" fill="#EF5E2A"/>
<path d="M7.5625 2.41943V5.11629C7.56404 5.36502 7.6643 5.60295 7.84124 5.77776C8.01819 5.95257 8.25732 6.04995 8.50605 6.04847H9.76411C10.0128 6.04995 10.252 5.95257 10.4289 5.77776C10.6059 5.60295 10.7061 5.36502 10.7077 5.11629V2.41943H7.5625Z" fill="#EF152A"/>
<path d="M4.41797 2.41943V5.11629C4.4195 5.36502 4.51977 5.60295 4.69671 5.77776C4.87366 5.95257 5.11279 6.04995 5.36152 6.04847H6.61958C6.86831 6.04995 7.10744 5.95257 7.28439 5.77776C7.46133 5.60295 7.56159 5.36502 7.56313 5.11629V2.41943H4.41797Z" fill="#EF5E2A"/>
<path d="M4.41809 2.41943V5.11653C4.41637 5.36518 4.31603 5.60297 4.13913 5.77771C3.96222 5.95244 3.72319 6.04982 3.47455 6.04847H2.21648C1.69632 6.04847 0.789062 5.90935 0.789062 5.39524L1.2318 2.41943H4.41809Z" fill="#EF152A"/>
<path d="M2.24023 0H12.8854V2.41935H2.24023V0Z" fill="#FCA311"/>
<path d="M8.04688 12.0967H8.53075V12.5806H8.04688V12.0967Z" fill="#666660"/>
<path d="M0.0625 14.5161H15.0625V15H0.0625V14.5161Z" fill="#666660"/>
<path d="M3.44922 0.967773H4.17503V1.45164H3.44922V0.967773Z" fill="#FBF2D2"/>
<path d="M5.14258 0.967773H5.86838V1.45164H5.14258V0.967773Z" fill="#FBF2D2"/>
<path d="M6.83594 0.967773H11.6746V1.45164H6.83594V0.967773Z" fill="#FBF2D2"/>
<path d="M10.4648 7.2583H12.8842V9.67766H10.4648V7.2583Z" fill="#FBF2D2"/>
</svg>
