<svg width="16" height="15" viewBox="0 0 16 15" fill="none" xmlns="http://www.w3.org/2000/svg">
<path d="M9.71584 9.62484C10.6469 9.91817 11.5304 10.3997 12.3803 11.0119C12.6706 11.2211 12.8179 11.5776 12.7648 11.9314C12.67 12.5634 12.5546 13.1717 12.4144 13.7521C12.2255 14.534 11.4976 15.0623 10.6962 14.9942C8.25592 14.7871 5.66581 13.5953 3.56658 11.496C1.46734 9.39679 0.275549 6.80667 0.0683875 4.36641C0.000346866 3.56493 0.528669 2.83706 1.31053 2.64815C1.89089 2.50793 2.49925 2.39261 3.1312 2.29779C3.48502 2.24471 3.84155 2.392 4.05068 2.68229C4.6629 3.53213 5.14442 4.41569 5.43776 5.34674C5.56323 5.74498 5.41693 6.17897 5.0748 6.41831L3.78953 7.31742C4.27941 8.08466 4.86785 8.82346 5.55349 9.50911C6.23913 10.1948 6.97793 10.7832 7.74517 11.2731L8.64428 9.9878C8.88361 9.64567 9.3176 9.49937 9.71584 9.62484Z" fill="#04DE3B"/>
<path d="M14.6568 7.0075C14.4329 7.0075 14.2514 6.82601 14.2514 6.60209C14.2514 5.05236 13.6498 3.59734 12.5574 2.50496C11.4648 1.41243 10.0097 0.810811 8.46009 0.810811C8.23617 0.810811 8.05469 0.629329 8.05469 0.405405C8.05469 0.181482 8.23617 0 8.46009 0C10.2263 0 11.885 0.686022 13.1306 1.93169C14.3762 3.17721 15.0622 4.83589 15.0622 6.60209C15.0622 6.82601 14.8807 7.0075 14.6568 7.0075Z" fill="#04DE3B"/>
<path d="M11.8321 7.00751C11.832 7.00751 11.8318 7.00751 11.8317 7.00751C11.6077 7.00719 11.4265 6.82555 11.4267 6.60163C11.4277 5.80808 11.1198 5.06267 10.5597 4.50255C10.0005 3.94337 9.25617 3.63552 8.46389 3.63552C8.46255 3.63552 8.46112 3.63536 8.46009 3.63552C8.23641 3.63552 8.05493 3.45435 8.05469 3.23059C8.05445 3.00666 8.23577 2.82502 8.45962 2.82471H8.46397C9.47281 2.82471 10.4205 3.21681 11.133 3.92928C11.8465 4.6427 12.2387 5.59207 12.2376 6.60258C12.2373 6.82634 12.0558 7.00751 11.8321 7.00751Z" fill="#04DE3B"/>
<path d="M9.13432 6.60153C9.13432 6.78155 9.06327 6.95047 8.93695 7.07838C8.8059 7.20782 8.6338 7.27412 8.46169 7.27412C8.28959 7.27412 8.11748 7.20782 7.98643 7.07676C7.85854 6.95047 7.78906 6.78155 7.78906 6.60153C7.78906 6.42151 7.85854 6.25259 7.98643 6.12623C8.24854 5.86417 8.67486 5.86417 8.93695 6.12623C9.06327 6.25413 9.13432 6.42151 9.13432 6.60153Z" fill="#04DE3B"/>
</svg>
