<svg width="36" height="35" viewBox="0 0 36 35" fill="none" xmlns="http://www.w3.org/2000/svg">
<g clip-path="url(#clip0_4489_20827)">
<path d="M29.3014 34.4035C21.8321 35.2004 14.2991 35.2004 6.8298 34.4035C5.37932 34.2503 4.02517 33.6046 2.99311 32.574C1.96104 31.5434 1.31342 30.1901 1.15821 28.7399C0.361326 21.2705 0.361326 13.7376 1.15821 6.26828C1.31138 4.8178 1.9571 3.46365 2.98772 2.43158C4.01834 1.39952 5.37159 0.751894 6.82185 0.596686C14.2912 -0.200198 21.8241 -0.200198 29.2934 0.596686C30.7439 0.749858 32.0981 1.39558 33.1301 2.4262C34.1622 3.45682 34.8098 4.81006 34.965 6.26032C35.7619 13.7297 35.7619 21.2626 34.965 28.7319C34.8119 30.1824 34.1661 31.5365 33.1355 32.5686C32.1049 33.6007 30.7516 34.2483 29.3014 34.4035Z" fill="#6F3FAA"/>
<path d="M28.1697 12.2203V12.1944C27.935 11.2439 27.3225 10.2615 26.5191 9.4342C25.5805 8.46375 24.3853 7.7021 23.2438 7.45551H23.2199C19.8159 6.80324 16.3189 6.80324 12.9148 7.45551H12.891C10.7711 7.91488 8.47023 10.1302 7.95716 12.1944V12.2203C7.32678 15.0821 7.32678 18.0468 7.95716 20.9086V20.9325C8.32307 22.4041 9.5958 23.9512 11.0634 24.8859C11.5427 25.1982 12.0644 25.44 12.6126 25.6038V27.9066C12.6133 28.0907 12.6689 28.2703 12.7721 28.4227C12.8754 28.575 13.0217 28.6932 13.1923 28.7621C13.363 28.831 13.5503 28.8475 13.7303 28.8095C13.9104 28.7716 14.0751 28.6809 14.2035 28.549L16.5381 26.1228C17.0432 26.1507 17.5523 26.1666 18.0574 26.1666C19.7865 26.1661 21.5117 26.0023 23.21 25.6774H23.2339C25.3478 25.216 27.6506 23.0007 28.1597 20.9365V20.9126C28.794 18.0502 28.7973 15.0841 28.1697 12.2203ZM26.3222 20.4831C25.9802 21.8294 24.2341 23.5058 22.8441 23.814C21.0386 24.1599 19.2011 24.3099 17.3634 24.2615C17.3455 24.2604 17.3276 24.2634 17.3111 24.2703C17.2945 24.2772 17.2798 24.2878 17.268 24.3012L15.5637 26.0512L13.7501 27.9106C13.721 27.9413 13.6835 27.9625 13.6423 27.9716C13.601 27.9807 13.558 27.9772 13.5188 27.9615C13.4796 27.9459 13.446 27.9188 13.4224 27.8839C13.3987 27.8489 13.3861 27.8077 13.3861 27.7655V23.9473C13.3862 23.9166 13.3755 23.8868 13.3558 23.8632C13.3362 23.8396 13.3089 23.8236 13.2788 23.818C12.9888 23.7492 12.7093 23.6422 12.4475 23.4998C11.2663 22.8694 10.0751 21.5768 9.80063 20.4831C9.23219 17.8962 9.23219 15.2168 9.80063 12.6299C10.1407 11.2896 11.8966 9.61716 13.2768 9.30693C16.4372 8.70221 19.6836 8.70221 22.8441 9.30693C23.6097 9.47795 24.4847 10.0606 25.1688 10.7765C25.7316 11.3592 26.1631 12.0314 26.3222 12.6359C26.8898 15.2208 26.8898 17.8981 26.3222 20.4831Z" fill="white"/>
<path d="M22.893 20.682C22.6346 21.2716 22.1904 21.7605 21.6282 22.074C21.4518 22.1489 21.2687 22.2068 21.0813 22.247C20.8686 22.1834 20.6657 22.1397 20.4848 22.0621C18.9773 21.4755 17.5739 20.6503 16.3285 19.6181C15.9585 19.3026 15.611 18.9617 15.2884 18.5979C14.4919 17.6806 13.8229 16.6598 13.2998 15.5632C13.0453 15.0442 12.8305 14.5073 12.6117 13.9723C12.4129 13.4851 12.7072 12.978 13.0095 12.6141C13.3053 12.2766 13.6693 12.0055 14.0774 11.8186C14.221 11.7465 14.3853 11.7268 14.5419 11.7632C14.6984 11.7995 14.8373 11.8895 14.9345 12.0175C15.4426 12.5884 15.8904 13.2101 16.2708 13.8729C16.3907 14.0656 16.4317 14.2971 16.3854 14.5193C16.3391 14.7414 16.2091 14.9373 16.0222 15.0661C15.9228 15.1357 15.8234 15.2152 15.7379 15.2928C15.6536 15.3552 15.5809 15.4319 15.5231 15.5195C15.4732 15.6014 15.443 15.6938 15.4347 15.7893C15.4264 15.8849 15.4404 15.9811 15.4754 16.0703C15.8592 17.1263 16.4419 18.0073 17.3129 18.6257C17.6076 18.8342 17.9252 19.0083 18.2595 19.1448C18.4777 19.2635 18.723 19.3238 18.9714 19.3198C19.4049 19.2681 19.5481 18.7888 19.8504 18.5422C19.9891 18.4286 20.1608 18.3628 20.34 18.3546C20.5191 18.3463 20.6961 18.3961 20.8447 18.4965C21.1669 18.6953 21.4771 18.9201 21.7873 19.1388C22.0941 19.3482 22.3896 19.5739 22.6723 19.8149C22.8045 19.911 22.8989 20.0502 22.9392 20.2086C22.9795 20.367 22.9632 20.5344 22.893 20.682Z" fill="white"/>
<path d="M18.6315 11.1524H18.377C18.4585 11.1484 18.544 11.1524 18.6315 11.1524Z" fill="white"/>
<path d="M23.0332 17.1124C22.8344 17.1124 22.7369 16.9434 22.723 16.7585C22.6972 16.3945 22.6773 16.0286 22.6276 15.6667C22.5416 15.056 22.3289 14.4701 22.0031 13.9465C21.6683 13.4011 21.2227 12.932 20.6951 12.5695C20.1676 12.2071 19.5699 11.9595 18.9406 11.8425C18.6543 11.7908 18.3619 11.7789 18.0736 11.7491C17.8906 11.7292 17.65 11.7173 17.6102 11.4906C17.6043 11.4465 17.6078 11.4017 17.6206 11.3592C17.6333 11.3166 17.655 11.2773 17.6842 11.2438C17.7134 11.2103 17.7493 11.1834 17.7898 11.1649C17.8302 11.1464 17.874 11.1367 17.9185 11.1366C17.9662 11.1338 18.014 11.1338 18.0616 11.1366C18.9309 11.1439 19.7849 11.3656 20.548 11.7818C21.3112 12.1981 21.9599 12.7961 22.4366 13.5229C22.813 14.1088 23.0686 14.764 23.1884 15.4499C23.2639 15.8795 23.2918 16.321 23.3256 16.7585C23.3324 16.8013 23.33 16.8452 23.3185 16.887C23.3071 16.9289 23.2869 16.9679 23.2592 17.0014C23.2316 17.0348 23.1971 17.062 23.1582 17.0812C23.1192 17.1003 23.0766 17.111 23.0332 17.1124Z" fill="white"/>
<path d="M21.9579 16.1835C21.9568 16.2426 21.9488 16.3013 21.934 16.3585C21.9167 16.416 21.882 16.4668 21.8348 16.5039C21.7875 16.541 21.73 16.5626 21.6701 16.5659C21.6101 16.5691 21.5506 16.5539 21.4996 16.5221C21.4486 16.4903 21.4087 16.4436 21.3852 16.3884C21.3633 16.3081 21.3532 16.225 21.3553 16.1418C21.36 15.697 21.2719 15.2561 21.0968 14.8472C21.057 14.7597 21.0133 14.6702 20.9636 14.5847C20.6789 14.094 20.2564 13.6978 19.7485 13.4452C19.4421 13.3005 19.1167 13.2001 18.782 13.1469C18.6349 13.123 18.4877 13.1091 18.3406 13.0892C18.3023 13.0873 18.2648 13.0775 18.2304 13.0605C18.196 13.0435 18.1655 13.0197 18.1407 12.9904C18.1159 12.9612 18.0974 12.9271 18.0862 12.8904C18.0751 12.8537 18.0717 12.8151 18.0761 12.777C18.0761 12.738 18.0844 12.6995 18.1003 12.6639C18.1163 12.6284 18.1396 12.5966 18.1687 12.5707C18.1978 12.5448 18.232 12.5253 18.2692 12.5136C18.3064 12.5018 18.3456 12.4981 18.3843 12.5026C18.9682 12.5251 19.5403 12.6744 20.0607 12.9401C20.6963 13.2599 21.2147 13.7721 21.5423 14.4037C21.7267 14.7725 21.8503 15.1687 21.9082 15.577C21.9189 15.6302 21.9269 15.684 21.932 15.7381C21.942 15.8574 21.946 15.9767 21.9559 16.1239C21.9559 16.1378 21.9579 16.1557 21.9579 16.1835Z" fill="white"/>
<path d="M20.595 15.9091C20.5838 15.9595 20.5577 16.0054 20.5201 16.0409C20.4825 16.0763 20.4352 16.0997 20.3842 16.108H20.3405C20.2753 16.1122 20.2106 16.0951 20.156 16.0592C20.1015 16.0233 20.0601 15.9706 20.0382 15.9091C20.0258 15.8765 20.0178 15.8424 20.0143 15.8077C20.0039 15.6739 19.9839 15.541 19.9547 15.41C19.8956 15.1448 19.7449 14.9089 19.5291 14.7438C19.4248 14.6689 19.3084 14.6124 19.1851 14.5767C19.028 14.531 18.8629 14.5429 18.7078 14.5052C18.6311 14.4916 18.563 14.4482 18.5182 14.3844C18.4735 14.3207 18.4559 14.2418 18.4692 14.1651C18.484 14.0916 18.525 14.026 18.5847 13.9806C18.6444 13.9353 18.7185 13.9132 18.7933 13.9185C19.7041 13.9841 20.3842 14.4216 20.5592 15.3981C20.5772 15.4887 20.5898 15.5803 20.597 15.6725C20.6081 15.751 20.6075 15.8308 20.595 15.9091Z" fill="white"/>
</g>
<defs>
<clipPath id="clip0_4489_20827">
<rect width="35" height="35" fill="white" transform="translate(0.5625)"/>
</clipPath>
</defs>
</svg>
